<?xml version="1.0" encoding="UTF-8" standalone="no"?>
<svg width="380px" height="371px" preserveAspectRatio="xMidYMid meet" viewBox="0 0 380 371" version="1.1" xmlns="http://www.w3.org/2000/svg" xmlns:xlink="http://www.w3.org/1999/xlink">
    <title>Wicked Free Wifi logo</title>
    <defs>
        <polygon id="path-1" points="48.2608825 176.179639 330.762091 176.179639 330.762091 83.659958 48.2608825 83.659958"></polygon>
        <polygon id="path-3" points="379.294206 115.05682 1.00157526 115.05682 1.00157526 1.00235159 379.294206 1.00235159"></polygon>
        <polygon id="path-5" points="189.860603 370.361937 123.084049 370.361937 123.084049 237.169809 189.860603 237.169809 256.637157 237.169809 256.637157 370.361937"></polygon>
    </defs>
    <g id="Page-1" stroke="none" stroke-width="1" fill="none" fill-rule="evenodd">
      <path d="M282.988462,204.234102 C232.336049,153.681868 150.154854,153.681868 99.4551835,204.234102 L130.082132,234.747293 C163.859596,201.041868 218.615555,201.041868 252.428462,234.747293 L282.988462,204.234102 Z" id="Fill-1" fill="#FFFFFF"></path>
      <mask id="mask-2" fill="white">
          <use xlink:href="#path-1"></use>
      </mask>
      <g id="Clip-2"></g>
      <path d="M330.763666,143.655852 C225.737295,43.7243622 96.9639134,85.8728729 48.2608825,145.686915 L78.8287588,176.180426 C117.064202,128.013511 221.712511,97.9214899 300.168223,174.184788 L330.763666,143.655852 Z" id="Fill-1" fill="#FFFFFF" mask="url(#mask-2)"></path>
      <mask id="mask-4" fill="white">
          <use xlink:href="#path-3"></use>
      </mask>
      <g id="Clip-2"></g>
      <path d="M379.294206,78.5224686 C210.284804,-65.954659 49.7148454,24.7504473 1,84.5369367 L31.5954433,115.058001 C76.7817113,58.1449154 221.851134,1.247575 348.698763,109.031724 L379.294206,78.5224686 Z" id="Fill-1" fill="#FFFFFF" mask="url(#mask-4)"></path>
      <mask id="mask-6" fill="white">
          <use xlink:href="#path-5"></use>
      </mask>
      <g id="Clip-2"></g>
      <g class="path100" fill="#FFFFFF">
        <path d="M237.080332,256.677469 C224.466456,244.097469 207.697837,237.169809 189.861981,237.169809 C172.026126,237.169809 155.257507,244.097469 142.643631,256.677469 C130.029755,269.253532 123.082868,285.97832 123.082868,303.765873 C123.082868,321.553426 130.029755,338.278213 142.643631,350.858213 C155.253569,363.434277 172.022188,370.361937 189.861981,370.361937 C207.697837,370.361937 224.470394,363.434277 237.080332,350.858213 C249.694208,338.278213 256.637157,321.553426 256.637157,303.765873 C256.637157,285.97832 249.694208,269.253532 237.080332,256.677469 M189.861981,240.011724 C206.937775,240.011724 222.99359,246.640235 235.06794,258.684915 C247.142291,270.72566 253.793816,286.738001 253.793816,303.765873 C253.793816,320.797681 247.142291,336.806086 235.06794,348.850766 C222.99359,360.891511 206.937775,367.523958 189.861981,367.523958 C172.786188,367.523958 156.730373,360.891511 144.656023,348.850766 C132.581672,336.806086 125.930146,320.797681 125.930146,303.765873 C125.930146,286.738001 132.577734,270.72566 144.656023,258.684915 C156.730373,246.640235 172.786188,240.011724 189.861981,240.011724" id="Fill-1" mask="url(#mask-6)"></path>
        <path d="M150.562058,281.761894 C150.565996,281.805192 150.597501,281.836681 150.617192,281.872107 C149.983151,282.187001 149.479068,282.734128 149.234903,283.426894 C149.041934,283.974022 149.026181,284.560511 149.191584,285.115511 C149.219151,285.206043 149.290037,285.276894 149.376676,285.308384 C149.408181,285.320192 149.443625,285.324128 149.47513,285.324128 C149.506635,285.324128 149.534202,285.320192 149.557831,285.31232 C149.636594,285.292639 149.699604,285.241469 149.735047,285.170618 C149.774429,285.103703 149.782305,285.021043 149.758676,284.946256 C149.632656,284.509341 149.64447,284.052745 149.79412,283.623703 C150.097357,282.757745 150.920429,282.179128 151.838016,282.179128 C152.082181,282.179128 152.31847,282.21849 152.550821,282.301149 C152.751666,282.372001 152.940697,282.470405 153.110037,282.592426 C153.236058,282.686894 153.429027,282.655405 153.523542,282.525511 C153.621996,282.395618 153.590491,282.210618 153.456594,282.112213 C153.239996,281.954766 152.999769,281.828809 152.747728,281.742213 C152.452367,281.639873 152.14913,281.588703 151.838016,281.588703 C151.601728,281.588703 151.373315,281.624128 151.152779,281.683171 C151.140965,281.576894 151.137027,281.470618 151.137027,281.368277 C151.137027,279.54583 152.621707,278.061894 154.452944,278.061894 C154.925522,278.061894 155.378408,278.156362 155.807666,278.349235 L155.827357,278.376788 C155.894305,278.471256 156.004573,278.51849 156.126656,278.490937 C156.240862,278.46732 156.331439,278.380724 156.355068,278.270511 C156.811893,276.294554 158.556491,274.912958 160.592511,274.912958 C161.9748,274.912958 163.246821,275.550618 164.073831,276.656681 C164.144718,276.751149 164.2668,276.798384 164.384944,276.766894 C164.499151,276.739341 164.58579,276.640937 164.60548,276.522852 L164.621233,276.40083 C165.164697,275.231788 166.34614,274.476043 167.637852,274.476043 C168.53181,274.476043 169.374573,274.826362 170.016491,275.471894 L170.024367,275.479766 C169.662058,275.786788 169.374573,276.184341 169.209171,276.648809 C169.02014,277.195937 169.004388,277.782426 169.165852,278.337426 C169.193419,278.427958 169.264305,278.498809 169.354882,278.530298 C169.386388,278.542107 169.417893,278.546043 169.449398,278.546043 C169.480903,278.546043 169.50847,278.542107 169.536037,278.534235 C169.693563,278.490937 169.78414,278.325618 169.736882,278.168171 C169.606924,277.731256 169.618738,277.27466 169.768388,276.845618 C170.075563,275.97966 170.894697,275.401043 171.812285,275.401043 C172.056449,275.401043 172.296676,275.440405 172.525089,275.523064 C172.725934,275.589979 172.914965,275.688384 173.084305,275.814341 C173.210326,275.904873 173.407233,275.87732 173.49781,275.747426 C173.596264,275.617532 173.564759,275.432532 173.4348,275.334128 C173.218202,275.176681 172.977975,275.05466 172.721996,274.964128 C172.430573,274.861788 172.123398,274.810618 171.812285,274.810618 C171.35546,274.810618 170.914388,274.924766 170.528449,275.133384 C170.347295,274.743703 170.248841,274.330405 170.248841,273.89349 C170.248841,272.271788 171.575996,270.953171 173.202449,270.953171 C173.466305,270.953171 173.726223,270.98466 173.978264,271.055511 C174.13579,271.098809 174.301192,271.000405 174.340573,270.846894 C174.364202,270.772107 174.352388,270.689447 174.313006,270.622532 C174.273625,270.551681 174.210614,270.504447 174.13579,270.484766 C173.832553,270.402107 173.517501,270.358809 173.202449,270.358809 C172.918903,270.358809 172.643233,270.402107 172.379377,270.465086 C172.166718,270.055724 172.048573,269.603064 172.048573,269.138596 C172.048573,267.540511 173.352099,266.241575 174.954924,266.241575 C175.151831,266.241575 175.352676,266.269128 175.545645,266.30849 C175.573212,266.891043 175.703171,267.453915 175.967027,267.97349 C176.041852,268.115192 176.226944,268.174235 176.368718,268.103384 C176.439604,268.067958 176.4908,268.004979 176.514429,267.930192 C176.538058,267.855405 176.53412,267.776681 176.498676,267.70583 C176.242697,267.209873 176.116676,266.670618 176.116676,266.111681 C176.116676,264.163277 177.703748,262.584873 179.65313,262.584873 C181.602511,262.584873 183.185645,264.163277 183.185645,266.111681 C183.185645,266.379341 183.158078,266.647001 183.099006,266.902852 C183.067501,267.044554 183.138388,267.186256 183.272285,267.245298 C183.402243,267.300405 183.559769,267.249235 183.634594,267.131149 L183.941769,266.658809 C184.268635,266.49349 184.630944,266.406894 184.997192,266.406894 C186.277089,266.406894 187.320697,267.446043 187.320697,268.721362 C187.320697,269.599128 186.832367,270.394235 186.0408,270.787852 C185.918718,270.85083 185.855707,270.988596 185.887212,271.122426 C185.918718,271.256256 186.036862,271.350724 186.174697,271.350724 L191.140697,271.350724 L191.140697,271.374341 L191.235212,271.374341 C191.317913,271.374341 191.400614,271.378277 191.483315,271.382213 L191.735357,271.390086 L191.739295,271.295618 C191.743233,271.059447 191.782614,270.831149 191.857439,270.618596 C192.160676,269.752639 192.983748,269.174022 193.901336,269.174022 C194.145501,269.174022 194.38179,269.213384 194.61414,269.296043 C194.814986,269.362958 195.004016,269.461362 195.173357,269.58732 C195.299377,269.677852 195.492346,269.646362 195.586862,269.520405 C195.63412,269.457426 195.649872,269.378703 195.638058,269.299979 C195.626243,269.221256 195.586862,269.154341 195.519913,269.107107 C195.307254,268.94966 195.067027,268.827639 194.811047,268.737107 C194.531439,268.638703 194.243955,268.591469 193.952532,268.587532 C193.861955,268.34349 193.810759,268.095511 193.810759,267.83966 C193.810759,266.67849 194.759852,265.729873 195.925542,265.729873 C196.748614,265.729873 197.5008,266.210086 197.847357,266.950086 C197.914305,267.095724 198.099398,267.162639 198.241171,267.095724 C198.390821,267.024873 198.453831,266.851681 198.386882,266.702107 C198.020635,265.918809 197.292078,265.387426 196.46113,265.214235 C196.315419,264.793064 196.224841,264.356149 196.224841,263.915298 C196.224841,261.722852 198.008821,259.943703 200.206305,259.943703 C202.344718,259.943703 204.081439,261.63232 204.172016,263.742107 C204.136573,263.789341 204.10113,263.840511 204.097192,263.899554 C204.081439,264.064873 204.203522,264.206575 204.368924,264.218384 C205.853604,264.336469 207.015357,265.592107 207.015357,267.079979 C207.015357,267.875086 206.680614,268.642639 206.097769,269.18583 C206.093831,269.18583 206.097769,269.193703 206.093831,269.197639 C206.042635,269.256681 205.979625,269.299979 205.932367,269.362958 C205.885109,269.425937 205.865419,269.50466 205.877233,269.583384 C205.889047,269.662107 205.928429,269.729022 205.991439,269.776256 C206.121398,269.870724 206.310429,269.847107 206.408882,269.717213 C206.916903,269.044128 207.692718,268.658384 208.53548,268.658384 C210.00047,268.658384 211.18979,269.847107 211.18979,271.311362 C211.18979,272.236362 210.697522,273.110192 209.898078,273.586469 C209.83113,273.62583 209.783872,273.692745 209.764181,273.767532 C209.744491,273.84232 209.756305,273.924979 209.795687,273.991894 C209.850821,274.082426 209.945336,274.133596 210.051666,274.133596 C210.102862,274.133596 210.157996,274.121788 210.201315,274.094235 C210.634511,273.834447 210.97713,273.47232 211.244924,273.062958 C211.256738,273.066894 211.264614,273.078703 211.280367,273.078703 L212.705975,273.078703 C212.867439,273.078703 213.001336,272.944873 213.001336,272.78349 C213.001336,272.618171 212.867439,272.488277 212.705975,272.488277 L211.532408,272.488277 C211.682058,272.114341 211.784449,271.720724 211.784449,271.311362 C211.784449,270.630405 211.57179,270.000618 211.213419,269.477107 L211.721439,269.477107 C211.882903,269.477107 212.0168,269.347213 212.0168,269.181894 C212.0168,269.020511 211.882903,268.886681 211.721439,268.886681 L211.122841,268.886681 C211.004697,268.886681 210.921996,268.969341 210.874738,269.067745 C210.280078,268.453703 209.453068,268.067958 208.53548,268.067958 C208.125913,268.067958 207.739975,268.162426 207.373728,268.300192 C207.503687,267.953809 207.582449,267.583809 207.598202,267.205937 L208.799336,267.205937 C208.964738,267.205937 209.094697,267.072107 209.094697,266.910724 C209.094697,266.749341 208.964738,266.615511 208.799336,266.615511 L207.566697,266.615511 C207.361913,265.155192 206.235604,263.970405 204.762738,263.694873 C204.644594,261.282001 202.655831,259.349341 200.206305,259.349341 C197.685893,259.349341 195.630181,261.400086 195.630181,263.915298 C195.630181,264.320724 195.708944,264.734022 195.831027,265.14732 C194.818924,265.182745 193.95647,265.773171 193.519336,266.623384 C193.51146,266.623384 193.507522,266.615511 193.499645,266.615511 L191.920449,266.615511 C191.758986,266.615511 191.625089,266.749341 191.625089,266.910724 C191.625089,267.072107 191.758986,267.205937 191.920449,267.205937 L193.2988,267.205937 C193.251542,267.410618 193.216099,267.619235 193.216099,267.83966 C193.216099,268.103384 193.271233,268.371043 193.357872,268.642639 C192.416656,268.831575 191.621151,269.496788 191.298223,270.421788 C191.258841,270.528064 191.262779,270.646149 191.235212,270.756362 L187.08047,270.756362 C187.61212,270.217107 187.911419,269.488915 187.911419,268.721362 C187.911419,267.119341 186.603955,265.812532 184.997192,265.812532 C184.579748,265.812532 184.162305,265.907001 183.780305,266.080192 C183.764553,263.809022 181.917563,261.966894 179.65313,261.966894 C178.113315,261.966894 176.782223,262.828915 176.073357,264.084554 C176.061542,263.931043 175.93946,263.809022 175.785872,263.809022 L174.769831,263.809022 C174.608367,263.809022 174.47447,263.942852 174.47447,264.104235 C174.47447,264.269554 174.608367,264.403384 174.769831,264.403384 L175.785872,264.403384 C175.844944,264.403384 175.888264,264.367958 175.935522,264.340405 C175.730738,264.765511 175.608656,265.229979 175.561398,265.718064 C175.360553,265.682639 175.159707,265.651149 174.954924,265.651149 C173.025233,265.651149 171.453913,267.213809 171.453913,269.138596 C171.453913,269.662107 171.591748,270.173809 171.816223,270.642213 C170.54814,271.181469 169.65812,272.437107 169.65812,273.89349 C169.65812,274.086362 169.669934,274.279235 169.701439,274.468171 C169.087089,274.086362 168.378223,273.881681 167.637852,273.881681 C166.204367,273.881681 164.900841,274.649235 164.211666,275.900937 C163.274388,274.881469 161.990553,274.322532 160.592511,274.322532 C158.418656,274.322532 156.540161,275.69232 155.886429,277.739128 C155.429604,277.558064 154.949151,277.467532 154.452944,277.467532 C152.294841,277.467532 150.542367,279.219128 150.542367,281.368277 C150.542367,281.498171 150.550243,281.628064 150.562058,281.761894" id="Fill-4" mask="url(#mask-6)"></path>
        <path d="M228.072614,282.920309 C228.072614,282.999032 228.10412,283.07382 228.159254,283.128926 C228.214388,283.187969 228.289212,283.219458 228.367975,283.219458 C228.446738,283.219458 228.521563,283.187969 228.576697,283.132862 C229.773893,281.96382 230.435501,280.397224 230.435501,278.724352 C230.435501,275.315628 227.659109,272.544564 224.244738,272.544564 C223.130243,272.544564 222.059068,272.855522 221.109975,273.414458 C220.625584,271.725841 219.081831,270.478075 217.234841,270.478075 C215.706841,270.478075 214.391501,271.332224 213.702326,272.57999 C213.647192,272.520947 213.576305,272.485522 213.489666,272.485522 L213.328202,272.485522 C213.1628,272.485522 213.032841,272.619352 213.032841,272.780735 C213.032841,272.946054 213.1628,273.079884 213.328202,273.079884 L213.462099,273.079884 C213.288821,273.528607 213.182491,274.00882 213.182491,274.516586 C213.182491,274.839352 213.221872,275.162118 213.300635,275.480947 C213.336078,275.634458 213.493604,275.740735 213.659006,275.697437 C213.816532,275.658075 213.914986,275.496692 213.875604,275.339245 C213.812594,275.071586 213.777151,274.796054 213.777151,274.516586 C213.777151,272.615415 215.328779,271.068501 217.234841,271.068501 C219.140903,271.068501 220.692532,272.615415 220.692532,274.516586 C220.692532,275.130628 220.52713,275.736798 220.216016,276.264245 C220.133315,276.402011 220.180573,276.583075 220.322346,276.669671 C220.365666,276.693288 220.416862,276.709032 220.471996,276.709032 C220.574388,276.709032 220.672841,276.653926 220.727975,276.563394 C221.090285,275.945415 221.283254,275.236905 221.283254,274.516586 C221.283254,274.34733 221.255687,274.185947 221.235996,274.024564 C222.133893,273.449884 223.165687,273.138926 224.244738,273.138926 C227.332243,273.138926 229.840841,275.64233 229.840841,278.724352 C229.840841,280.235841 229.246181,281.652862 228.163192,282.711692 C228.10412,282.766798 228.072614,282.841586 228.072614,282.920309" id="Fill-6" mask="url(#mask-6)"></path>
        <path d="M173.889262,264.106203 C173.889262,263.94482 173.755365,263.81099 173.593901,263.81099 L167.304685,263.81099 C167.143221,263.81099 167.009324,263.94482 167.009324,264.106203 C167.009324,264.267586 167.143221,264.401415 167.304685,264.401415 L173.593901,264.401415 C173.755365,264.401415 173.889262,264.267586 173.889262,264.106203" id="Fill-8" mask="url(#mask-6)"></path>
        <path d="M166.067713,273.079096 L169.430889,273.079096 C169.592353,273.079096 169.726249,272.945266 169.726249,272.783884 C169.726249,272.618564 169.592353,272.484735 169.430889,272.484735 L166.067713,272.484735 C165.902311,272.484735 165.772353,272.618564 165.772353,272.783884 C165.772353,272.945266 165.902311,273.079096 166.067713,273.079096" id="Fill-10" mask="url(#mask-6)"></path>
        <path d="M163.03101,272.486309 C162.869546,272.486309 162.735649,272.620139 162.735649,272.781522 C162.735649,272.946841 162.869546,273.080671 163.03101,273.080671 L165.307258,273.080671 C165.47266,273.080671 165.606557,272.946841 165.606557,272.781522 C165.606557,272.620139 165.47266,272.486309 165.307258,272.486309 L163.03101,272.486309 Z" id="Fill-12" mask="url(#mask-6)"></path>
        <path d="M155.315792,272.486309 C155.15039,272.486309 155.020431,272.620139 155.020431,272.781522 C155.020431,272.946841 155.15039,273.080671 155.315792,273.080671 L161.565627,273.080671 C161.731029,273.080671 161.864926,272.946841 161.864926,272.781522 C161.864926,272.620139 161.731029,272.486309 161.565627,272.486309 L155.315792,272.486309 Z" id="Fill-14" mask="url(#mask-6)"></path>
        <path d="M221.702666,268.886288 L218.642728,268.886288 C218.477326,268.886288 218.343429,269.020118 218.343429,269.181501 C218.343429,269.34682 218.477326,269.476713 218.642728,269.476713 L221.702666,269.476713 C221.868068,269.476713 221.998027,269.34682 221.998027,269.181501 C221.998027,269.020118 221.868068,268.886288 221.702666,268.886288" id="Fill-16" mask="url(#mask-6)"></path>
        <path d="M213.49321,269.182288 C213.49321,269.343671 213.627107,269.477501 213.788571,269.477501 L216.718551,269.477501 C216.880014,269.477501 217.013911,269.343671 217.013911,269.182288 C217.013911,269.020905 216.880014,268.887075 216.718551,268.887075 L213.788571,268.887075 C213.627107,268.887075 213.49321,269.020905 213.49321,269.182288" id="Fill-18" mask="url(#mask-6)"></path>
        <path d="M169.83573,269.846713 C169.83573,269.68533 169.701833,269.551501 169.540369,269.551501 L169.103235,269.551501 C168.941771,269.551501 168.807874,269.68533 168.807874,269.846713 C168.807874,270.008096 168.941771,270.141926 169.103235,270.141926 L169.540369,270.141926 C169.701833,270.141926 169.83573,270.008096 169.83573,269.846713" id="Fill-20" mask="url(#mask-6)"></path>
        <path d="M159.912394,269.846713 C159.912394,270.008096 160.046291,270.141926 160.207755,270.141926 L160.644889,270.141926 C160.806353,270.141926 160.940249,270.008096 160.940249,269.846713 C160.940249,269.68533 160.806353,269.551501 160.644889,269.551501 L160.207755,269.551501 C160.046291,269.551501 159.912394,269.68533 159.912394,269.846713" id="Fill-22" mask="url(#mask-6)"></path>
        <path d="M213.211633,267.20633 L213.428231,267.20633 C213.593633,267.20633 213.723592,267.072501 213.723592,266.911118 C213.723592,266.745798 213.593633,266.615905 213.428231,266.615905 L213.211633,266.615905 C213.046231,266.615905 212.916272,266.745798 212.916272,266.911118 C212.916272,267.072501 213.046231,267.20633 213.211633,267.20633" id="Fill-24" mask="url(#mask-6)"></path>
        <path d="M168.585763,267.20633 L168.802361,267.20633 C168.967763,267.20633 169.097722,267.072501 169.097722,266.911118 C169.097722,266.745798 168.967763,266.615905 168.802361,266.615905 L168.585763,266.615905 C168.420361,266.615905 168.290402,266.745798 168.290402,266.911118 C168.290402,267.072501 168.420361,267.20633 168.585763,267.20633" id="Fill-26" mask="url(#mask-6)"></path>
        <path d="M163.492955,267.20633 C163.658357,267.20633 163.788315,267.072501 163.788315,266.911118 C163.788315,266.745798 163.658357,266.615905 163.492955,266.615905 L163.276357,266.615905 C163.110955,266.615905 162.980996,266.745798 162.980996,266.911118 C162.980996,267.072501 163.110955,267.20633 163.276357,267.20633 L163.492955,267.20633 Z" id="Fill-28" mask="url(#mask-6)"></path>
        <path d="M168.316788,269.846713 C168.316788,269.68533 168.182891,269.551501 168.021427,269.551501 L161.409282,269.551501 C161.24388,269.551501 161.113922,269.68533 161.113922,269.846713 C161.113922,270.008096 161.24388,270.141926 161.409282,270.141926 L168.021427,270.141926 C168.182891,270.141926 168.316788,270.008096 168.316788,269.846713" id="Fill-30" mask="url(#mask-6)"></path>
        <path d="M218.873109,266.615118 L215.297274,266.615118 C215.13581,266.615118 215.001913,266.748947 215.001913,266.91033 C215.001913,267.075649 215.13581,267.205543 215.297274,267.205543 L218.873109,267.205543 C219.038511,267.205543 219.16847,267.075649 219.16847,266.91033 C219.16847,266.748947 219.038511,266.615118 218.873109,266.615118" id="Fill-32" mask="url(#mask-6)"></path>
        <path d="M209.957938,266.615118 C209.792536,266.615118 209.662577,266.748947 209.662577,266.91033 C209.662577,267.075649 209.792536,267.205543 209.957938,267.205543 L212.017588,267.205543 C212.18299,267.205543 212.316887,267.075649 212.316887,266.91033 C212.316887,266.748947 212.18299,266.615118 212.017588,266.615118 L209.957938,266.615118 Z" id="Fill-34" mask="url(#mask-6)"></path>
        <path d="M188.20481,267.20633 L190.142377,267.20633 C190.307779,267.20633 190.437738,267.072501 190.437738,266.911118 C190.437738,266.745798 190.307779,266.615905 190.142377,266.615905 L188.20481,266.615905 C188.039408,266.615905 187.909449,266.745798 187.909449,266.911118 C187.909449,267.072501 188.039408,267.20633 188.20481,267.20633" id="Fill-36" mask="url(#mask-6)"></path>
        <path d="M172.100557,266.911118 C172.100557,266.745798 171.96666,266.615905 171.805196,266.615905 L169.658907,266.615905 C169.497443,266.615905 169.363546,266.745798 169.363546,266.911118 C169.363546,267.072501 169.497443,267.20633 169.658907,267.20633 L171.805196,267.20633 C171.96666,267.20633 172.100557,267.072501 172.100557,266.911118" id="Fill-38" mask="url(#mask-6)"></path>
        <path d="M167.555151,267.20633 C167.716614,267.20633 167.850511,267.072501 167.850511,266.911118 C167.850511,266.745798 167.716614,266.615905 167.555151,266.615905 L164.251047,266.615905 C164.089584,266.615905 163.955687,266.745798 163.955687,266.911118 C163.955687,267.072501 164.089584,267.20633 164.251047,267.20633 L167.555151,267.20633 Z" id="Fill-40" mask="url(#mask-6)"></path>
        <path d="M214.485229,264.106203 C214.485229,263.94482 214.351332,263.81099 214.189868,263.81099 L206.577435,263.81099 C206.412033,263.81099 206.278136,263.94482 206.278136,264.106203 C206.278136,264.267586 206.412033,264.401415 206.577435,264.401415 L214.189868,264.401415 C214.351332,264.401415 214.485229,264.267586 214.485229,264.106203" id="Fill-42" mask="url(#mask-6)"></path>
        <path d="M192.024416,264.401809 L193.540602,264.401809 C193.706004,264.401809 193.839901,264.267979 193.839901,264.106596 C193.839901,263.941277 193.706004,263.811384 193.540602,263.811384 L192.024416,263.811384 C191.859014,263.811384 191.725118,263.941277 191.725118,264.106596 C191.725118,264.267979 191.859014,264.401809 192.024416,264.401809" id="Fill-44" mask="url(#mask-6)"></path>
        <path d="M191.067447,264.106203 C191.067447,263.94482 190.933551,263.81099 190.772087,263.81099 L188.810891,263.81099 C188.645489,263.81099 188.51553,263.94482 188.51553,264.106203 C188.51553,264.267586 188.645489,264.401415 188.810891,264.401415 L190.772087,264.401415 C190.933551,264.401415 191.067447,264.267586 191.067447,264.106203" id="Fill-46" mask="url(#mask-6)"></path>
        <path d="M187.069837,264.401809 L187.558167,264.401809 C187.719631,264.401809 187.853528,264.267979 187.853528,264.106596 C187.853528,263.941277 187.719631,263.811384 187.558167,263.811384 L187.069837,263.811384 C186.904435,263.811384 186.774476,263.941277 186.774476,264.106596 C186.774476,264.267979 186.904435,264.401809 187.069837,264.401809" id="Fill-48" mask="url(#mask-6)"></path>
        <path d="M184.339522,264.401809 L186.017171,264.401809 C186.178635,264.401809 186.312532,264.267979 186.312532,264.106596 C186.312532,263.941277 186.178635,263.811384 186.017171,263.811384 L184.339522,263.811384 C184.17412,263.811384 184.044161,263.941277 184.044161,264.106596 C184.044161,264.267979 184.17412,264.401809 184.339522,264.401809" id="Fill-50" mask="url(#mask-6)"></path>
        <path d="M208.502006,261.183596 L210.183594,261.183596 C210.345058,261.183596 210.478955,261.049766 210.478955,260.888384 C210.478955,260.723064 210.345058,260.593171 210.183594,260.593171 L208.502006,260.593171 C208.336604,260.593171 208.202707,260.723064 208.202707,260.888384 C208.202707,261.049766 208.336604,261.183596 208.502006,261.183596" id="Fill-52" mask="url(#mask-6)"></path>
        <path d="M204.056235,261.183596 L206.738111,261.183596 C206.903513,261.183596 207.03741,261.049766 207.03741,260.888384 C207.03741,260.723064 206.903513,260.593171 206.738111,260.593171 L204.056235,260.593171 C203.890833,260.593171 203.760874,260.723064 203.760874,260.888384 C203.760874,261.049766 203.890833,261.183596 204.056235,261.183596" id="Fill-54" mask="url(#mask-6)"></path>
        <path d="M194.809078,260.592384 L192.639161,260.592384 C192.477697,260.592384 192.3438,260.726213 192.3438,260.887596 C192.3438,261.052915 192.477697,261.182809 192.639161,261.182809 L194.809078,261.182809 C194.97448,261.182809 195.104439,261.052915 195.104439,260.887596 C195.104439,260.726213 194.97448,260.592384 194.809078,260.592384" id="Fill-56" mask="url(#mask-6)"></path>
        <path d="M188.167398,260.88799 C188.167398,261.053309 188.301295,261.183203 188.462759,261.183203 L190.038016,261.183203 C190.19948,261.183203 190.333377,261.053309 190.333377,260.88799 C190.333377,260.726607 190.19948,260.592777 190.038016,260.592777 L188.462759,260.592777 C188.301295,260.592777 188.167398,260.726607 188.167398,260.88799" id="Fill-58" mask="url(#mask-6)"></path>
        <path d="M182.932816,261.183596 L184.720734,261.183596 C184.886136,261.183596 185.020033,261.049766 185.020033,260.888384 C185.020033,260.723064 184.886136,260.593171 184.720734,260.593171 L182.932816,260.593171 C182.767414,260.593171 182.637456,260.723064 182.637456,260.888384 C182.637456,261.049766 182.767414,261.183596 182.932816,261.183596" id="Fill-60" mask="url(#mask-6)"></path>
        <path d="M175.863847,260.592384 C175.698445,260.592384 175.568487,260.726213 175.568487,260.887596 C175.568487,261.052915 175.698445,261.182809 175.863847,261.182809 L178.301559,261.182809 C178.463023,261.182809 178.59692,261.052915 178.59692,260.887596 C178.59692,260.726213 178.463023,260.592384 178.301559,260.592384 L175.863847,260.592384 Z" id="Fill-62" mask="url(#mask-6)"></path>
        <path d="M174.657988,260.88799 C174.657988,260.726607 174.524091,260.592777 174.362627,260.592777 L171.409019,260.592777 C171.243616,260.592777 171.10972,260.726607 171.10972,260.88799 C171.10972,261.053309 171.243616,261.183203 171.409019,261.183203 L174.362627,261.183203 C174.524091,261.183203 174.657988,261.053309 174.657988,260.88799" id="Fill-64" mask="url(#mask-6)"></path>
        <path d="M186.533068,260.88799 C186.533068,260.726607 186.399171,260.592777 186.233769,260.592777 L186.072305,260.592777 C185.910841,260.592777 185.776944,260.726607 185.776944,260.88799 C185.776944,261.053309 185.910841,261.183203 186.072305,261.183203 L186.233769,261.183203 C186.399171,261.183203 186.533068,261.053309 186.533068,260.88799" id="Fill-66" mask="url(#mask-6)"></path>
        <path d="M187.186406,261.183596 C187.351808,261.183596 187.481767,261.049766 187.481767,260.888384 C187.481767,260.723064 187.351808,260.593171 187.186406,260.593171 L187.024942,260.593171 C186.85954,260.593171 186.725643,260.723064 186.725643,260.888384 C186.725643,261.049766 186.85954,261.183596 187.024942,261.183596 L187.186406,261.183596 Z" id="Fill-68" mask="url(#mask-6)"></path>
        <path d="M192.404054,255.275798 L201.060095,255.275798 C201.221559,255.275798 201.355456,255.141969 201.355456,254.980586 C201.355456,254.815266 201.221559,254.685373 201.060095,254.685373 L192.404054,254.685373 C192.24259,254.685373 192.108693,254.815266 192.108693,254.980586 C192.108693,255.141969 192.24259,255.275798 192.404054,255.275798" id="Fill-70" mask="url(#mask-6)"></path>
        <path d="M187.931897,254.980192 C187.931897,255.141575 188.065794,255.275405 188.227258,255.275405 L190.243588,255.275405 C190.40899,255.275405 190.542887,255.141575 190.542887,254.980192 C190.542887,254.818809 190.40899,254.684979 190.243588,254.684979 L188.227258,254.684979 C188.065794,254.684979 187.931897,254.818809 187.931897,254.980192" id="Fill-72" mask="url(#mask-6)"></path>
        <path d="M180.169027,254.980192 C180.169027,255.141575 180.302924,255.275405 180.464388,255.275405 L184.485233,255.275405 C184.650635,255.275405 184.784532,255.141575 184.784532,254.980192 C184.784532,254.818809 184.650635,254.684979 184.485233,254.684979 L180.464388,254.684979 C180.302924,254.684979 180.169027,254.818809 180.169027,254.980192" id="Fill-74" mask="url(#mask-6)"></path>
        <path d="M186.001025,255.275798 C186.162489,255.275798 186.296386,255.141969 186.296386,254.980586 C186.296386,254.815266 186.162489,254.685373 186.001025,254.685373 L185.839561,254.685373 C185.674159,254.685373 185.540262,254.815266 185.540262,254.980586 C185.540262,255.141969 185.674159,255.275798 185.839561,255.275798 L186.001025,255.275798 Z" id="Fill-76" mask="url(#mask-6)"></path>
        <path d="M186.950905,255.275798 C187.116307,255.275798 187.246266,255.141969 187.246266,254.980586 C187.246266,254.815266 187.116307,254.685373 186.950905,254.685373 L186.789441,254.685373 C186.624039,254.685373 186.490142,254.815266 186.490142,254.980586 C186.490142,255.141969 186.624039,255.275798 186.789441,255.275798 L186.950905,255.275798 Z" id="Fill-78" mask="url(#mask-6)"></path>
        <path d="M194.795295,263.810203 L194.633831,263.810203 C194.468429,263.810203 194.334532,263.944032 194.334532,264.105415 C194.334532,264.270735 194.468429,264.400628 194.633831,264.400628 L194.795295,264.400628 C194.960697,264.400628 195.090656,264.270735 195.090656,264.105415 C195.090656,263.944032 194.960697,263.810203 194.795295,263.810203" id="Fill-80" mask="url(#mask-6)"></path>
        <path d="M205.493264,257.896107 C205.493264,257.734724 205.359367,257.600894 205.197903,257.600894 L196.817532,257.600894 C196.65213,257.600894 196.518233,257.734724 196.518233,257.896107 C196.518233,258.05749 196.65213,258.19132 196.817532,258.19132 L205.197903,258.19132 C205.359367,258.19132 205.493264,258.05749 205.493264,257.896107" id="Fill-82" mask="url(#mask-6)"></path>
        <path d="M193.695371,257.896107 C193.695371,257.734724 193.561474,257.600894 193.40001,257.600894 L190.091969,257.600894 C189.926567,257.600894 189.79267,257.734724 189.79267,257.896107 C189.79267,258.05749 189.926567,258.19132 190.091969,258.19132 L193.40001,258.19132 C193.561474,258.19132 193.695371,258.05749 193.695371,257.896107" id="Fill-84" mask="url(#mask-6)"></path>
        <path d="M189.574891,257.896107 C189.574891,257.734724 189.440994,257.600894 189.27953,257.600894 L185.428025,257.600894 C185.262623,257.600894 185.132664,257.734724 185.132664,257.896107 C185.132664,258.05749 185.262623,258.19132 185.428025,258.19132 L189.27953,258.19132 C189.440994,258.19132 189.574891,258.05749 189.574891,257.896107" id="Fill-86" mask="url(#mask-6)"></path>
        <path d="M183.880334,257.896107 C183.880334,257.734724 183.746437,257.600894 183.584973,257.600894 L181.903386,257.600894 C181.737984,257.600894 181.604087,257.734724 181.604087,257.896107 C181.604087,258.05749 181.737984,258.19132 181.903386,258.19132 L183.584973,258.19132 C183.746437,258.19132 183.880334,258.05749 183.880334,257.896107" id="Fill-88" mask="url(#mask-6)"></path>
        <path d="M178.783194,257.896107 C178.783194,257.734724 178.649297,257.600894 178.483895,257.600894 L176.077689,257.600894 C176.05406,257.600894 176.042245,257.616639 176.022555,257.620575 C176.002864,257.616639 175.987111,257.600894 175.967421,257.600894 L175.534225,257.600894 C175.368823,257.600894 175.234926,257.734724 175.234926,257.896107 C175.234926,258.05749 175.368823,258.19132 175.534225,258.19132 L175.967421,258.19132 C175.987111,258.19132 176.002864,258.171639 176.022555,258.167703 C176.042245,258.171639 176.05406,258.19132 176.077689,258.19132 L178.483895,258.19132 C178.649297,258.19132 178.783194,258.05749 178.783194,257.896107" id="Fill-90" mask="url(#mask-6)"></path>
        <path d="M184.645122,258.19132 C184.810524,258.19132 184.940482,258.05749 184.940482,257.896107 C184.940482,257.734724 184.810524,257.600894 184.645122,257.600894 L184.428524,257.600894 C184.263122,257.600894 184.133163,257.734724 184.133163,257.896107 C184.133163,258.05749 184.263122,258.19132 184.428524,258.19132 L184.645122,258.19132 Z" id="Fill-92" mask="url(#mask-6)"></path>
        <path d="M179.833103,257.59932 C179.667701,257.59932 179.537742,257.733149 179.537742,257.894532 C179.537742,258.059852 179.667701,258.189745 179.833103,258.189745 L180.049701,258.189745 C180.215103,258.189745 180.345062,258.059852 180.345062,257.894532 C180.345062,257.733149 180.215103,257.59932 180.049701,257.59932 L179.833103,257.59932 Z" id="Fill-94" mask="url(#mask-6)"></path>
        <path d="M195.214313,257.896107 C195.214313,257.734724 195.080416,257.600894 194.918953,257.600894 L194.702355,257.600894 C194.536953,257.600894 194.403056,257.734724 194.403056,257.896107 C194.403056,258.05749 194.536953,258.19132 194.702355,258.19132 L194.918953,258.19132 C195.080416,258.19132 195.214313,258.05749 195.214313,257.896107" id="Fill-96" mask="url(#mask-6)"></path>
        <path d="M158.621076,336.588022 C159.42052,336.588022 160.192396,336.296745 160.79887,335.769298 L161.015468,335.576426 L160.511386,335.115894 L160.338107,335.269405 C159.869468,335.682703 159.259056,335.911001 158.621076,335.911001 C157.203344,335.911001 156.053406,334.797064 156.053406,333.423341 C156.053406,332.05749 157.203344,330.943554 158.621076,330.943554 C159.262994,330.943554 159.873406,331.167915 160.338107,331.577277 L160.519262,331.73866 L160.999715,331.262384 L160.787056,331.077384 C160.188458,330.557809 159.42052,330.266532 158.621076,330.266532 C156.829221,330.266532 155.372107,331.683554 155.372107,333.423341 C155.372107,335.167064 156.829221,336.588022 158.621076,336.588022" id="Fill-98" mask="url(#mask-6)"></path>
        <path d="M166.122847,330.268107 C164.330992,330.268107 162.873878,331.685128 162.873878,333.424915 C162.873878,335.168639 164.330992,336.589596 166.122847,336.589596 C167.914703,336.589596 169.371816,335.168639 169.371816,333.424915 C169.371816,331.685128 167.914703,330.268107 166.122847,330.268107 M166.122847,335.904703 C164.709054,335.904703 163.563054,334.790766 163.563054,333.424915 C163.563054,332.063001 164.709054,330.953001 166.122847,330.953001 C167.536641,330.953001 168.682641,332.063001 168.682641,333.424915 C168.682641,334.790766 167.536641,335.904703 166.122847,335.904703" id="Fill-100" mask="url(#mask-6)"></path>
        <polygon id="Fill-103" mask="url(#mask-6)" points="175.742553 335.363873 172.060388 330.305894 172.032821 330.266532 171.390903 330.266532 171.390903 336.588022 172.07614 336.588022 172.07614 331.490681 175.758305 336.54866 175.785872 336.588022 176.42779 336.588022 176.42779 330.266532 175.742553 330.266532"></polygon>
        <path d="M182.179843,330.268107 L179.631864,330.268107 L179.631864,336.589596 L182.179843,336.589596 C183.967761,336.589596 185.420936,335.172575 185.420936,333.432788 C185.420936,331.689064 183.967761,330.268107 182.179843,330.268107 M184.731761,333.432788 C184.731761,334.794703 183.585761,335.904703 182.179843,335.904703 L180.317101,335.904703 L180.317101,330.953001 L182.179843,330.953001 C183.585761,330.953001 184.731761,332.063001 184.731761,333.432788" id="Fill-104" mask="url(#mask-6)"></path>
        <polygon id="Fill-106" mask="url(#mask-6)" points="188.122503 336.58566 188.811678 336.58566 188.811678 330.264171 188.122503 330.264171"></polygon>
        <polygon id="Fill-107" mask="url(#mask-6)" points="193.840689 336.588022 193.840689 330.951426 195.837328 330.951426 195.837328 330.266532 191.154874 330.266532 191.154874 330.951426 193.155452 330.951426 193.155452 336.588022"></polygon>
        <path d="M198.032449,334.820681 L201.226285,334.820681 L202.04148,336.588022 L202.80548,336.588022 L199.895192,330.321639 L199.871563,330.266532 L199.355666,330.266532 L196.512326,336.458128 L196.453254,336.588022 L197.22513,336.588022 L198.032449,334.820681 Z M198.343563,334.135788 L199.615584,331.341107 L200.911233,334.135788 L198.343563,334.135788 Z" id="Fill-108" mask="url(#mask-6)"></path>
        <path d="M212.405889,330.268107 L211.889992,330.268107 L209.046652,336.459703 L208.987579,336.589596 L209.759456,336.589596 L210.566775,334.822256 L213.764548,334.822256 L214.579744,336.589596 L215.343744,336.589596 L212.429518,330.319277 L212.405889,330.268107 Z M213.449497,334.133426 L210.877889,334.133426 L212.149909,331.342681 L213.449497,334.133426 Z" id="Fill-109" mask="url(#mask-6)"></path>
        <path d="M217.900388,330.268107 L217.900388,336.589596 L220.448367,336.589596 C222.236285,336.589596 223.68946,335.172575 223.68946,333.432788 C223.68946,331.689064 222.236285,330.268107 220.448367,330.268107 L217.900388,330.268107 Z M220.448367,335.904703 L218.585625,335.904703 L218.585625,330.953001 L220.448367,330.953001 C221.858223,330.953001 223.000285,332.063001 223.000285,333.432788 C223.000285,334.794703 221.858223,335.904703 220.448367,335.904703 L220.448367,335.904703 Z" id="Fill-110" mask="url(#mask-6)"></path>
        <polygon id="Fill-112" mask="url(#mask-6)" points="175.830767 341.621203 175.830767 342.38482 177.280004 342.38482 177.280004 348.922798 178.044004 348.922798 178.044004 341.621203"></polygon>
        <path d="M186.837093,346.856703 C186.837093,345.282235 185.761979,344.306064 184.033134,344.306064 C183.024969,344.306064 182.186144,344.640639 181.638742,345.250745 C181.713567,344.274575 182.012866,343.503086 182.501196,343.018937 C182.776866,342.743405 183.363649,342.282873 184.159155,342.282873 C184.663237,342.282873 185.423299,342.282873 185.962825,342.538724 L186.037649,342.574149 L186.301505,342.125426 L186.344825,342.03883 L186.340887,342.03883 L186.451155,341.845958 L186.356639,341.806596 C185.639897,341.495639 184.832577,341.468086 184.135526,341.468086 C182.099505,341.468086 180.736907,343.176384 180.736907,345.723086 C180.736907,346.51032 180.866866,347.199149 181.126784,347.762022 L181.217361,347.939149 C181.752948,348.942873 182.709918,349.47032 183.985876,349.47032 C185.71866,349.47032 186.837093,348.442979 186.837093,346.856703 M185.962825,346.837022 C185.962825,347.943086 185.163381,348.659469 183.930742,348.659469 C182.497258,348.659469 181.851402,347.640001 181.851402,346.919681 C181.851402,346.045852 182.615402,345.116915 184.033134,345.116915 C185.222454,345.116915 185.962825,345.778192 185.962825,346.837022" id="Fill-113" mask="url(#mask-6)"></path>
        <path d="M192.167371,344.561128 L194.16401,342.211235 L194.183701,342.183681 L194.183701,341.620809 L189.41067,341.620809 L189.41067,342.384426 L193.01801,342.384426 L191.017433,344.730384 L190.993804,344.757937 L190.993804,345.320809 L191.958649,345.320809 C192.624196,345.320809 193.734753,345.494001 193.734753,346.643362 C193.734753,347.56049 193.045577,348.154852 191.97834,348.154852 C191.407309,348.154852 190.800835,347.977724 190.351887,347.674639 L190.127412,347.525064 L189.662711,348.139107 L189.918691,348.304426 C190.501536,348.690171 191.273412,348.922405 191.97834,348.922405 C193.486649,348.922405 194.502691,347.989532 194.502691,346.604001 C194.502691,345.399532 193.61267,344.628043 192.167371,344.561128" id="Fill-115" mask="url(#mask-6)"></path>
        <path d="M203.230406,345.024809 C203.230406,342.706405 202.151355,341.379915 200.268922,341.379915 C198.394365,341.379915 197.319252,342.706405 197.319252,345.024809 C197.319252,347.347149 198.394365,348.681511 200.268922,348.681511 C202.151355,348.681511 203.230406,347.347149 203.230406,345.024809 M202.462468,345.024809 C202.462468,346.886618 201.682715,347.913958 200.268922,347.913958 C198.859066,347.913958 198.08719,346.886618 198.08719,345.024809 C198.08719,343.710128 198.465252,342.143532 200.268922,342.143532 C201.682715,342.143532 202.462468,343.166937 202.462468,345.024809" id="Fill-117" mask="url(#mask-6)"></path>
        <path d="M132.173287,292.820171 C132.307184,292.85166 132.433204,292.863469 132.555287,292.863469 C133.468936,292.863469 133.910008,292.084107 134.299885,291.395277 C134.674008,290.737937 135.028441,290.12783 135.705802,290.297086 C136.229575,290.415171 136.450111,291.025277 136.265019,291.855809 C136.138998,292.414745 135.768812,292.950064 135.319864,293.217724 L135.071761,293.363362 L135.453761,293.965596 L135.690049,293.819958 C136.296524,293.442086 136.796668,292.729639 136.958132,292.00932 C137.088091,291.418894 137.064462,290.883575 136.883307,290.462405 C136.6864,290.005809 136.335905,289.710596 135.863328,289.60432 C135.717616,289.57283 135.58372,289.557086 135.453761,289.557086 C134.520421,289.557086 134.079348,290.34432 133.685534,291.041022 C133.272029,291.773149 132.933348,292.261235 132.326874,292.127405 C131.873988,292.025064 131.688895,291.466128 131.858235,290.702511 C131.956689,290.277405 132.181163,289.84049 132.437142,289.588575 L132.637988,289.391766 L132.133905,288.903681 L131.940936,289.092618 C131.590441,289.439001 131.287204,290.009745 131.165122,290.549001 C130.901266,291.733788 131.29508,292.623362 132.173287,292.820171" id="Fill-119" mask="url(#mask-6)"></path>
        <polygon id="Fill-122" mask="url(#mask-6)" points="132.306396 286.226298 138.008829 287.977894 138.221489 287.304809 132.601757 285.57683 132.515118 285.549277"></polygon>
        <path d="M135.978322,284.408181 C136.324878,284.549884 136.691126,284.620735 137.069188,284.620735 C138.297889,284.620735 139.432074,283.853181 139.900713,282.70382 C140.18426,282.011054 140.200012,281.235628 139.955847,280.519245 L139.853456,280.227969 L139.211538,280.531054 L139.294239,280.767224 C139.487208,281.306479 139.467518,281.900841 139.25092,282.440096 C138.88861,283.325735 138.014342,283.920096 137.077064,283.920096 C136.793518,283.920096 136.513909,283.868926 136.246115,283.758713 C135.682961,283.530415 135.245827,283.089564 135.013476,282.51882 C134.781126,281.944139 134.785064,281.306479 135.021353,280.727862 C135.241889,280.180735 135.643579,279.739884 136.1516,279.491905 L136.383951,279.37382 L136.112219,278.732224 L135.848363,278.866054 C135.178878,279.196692 134.655105,279.767437 134.367621,280.464139 C133.733579,282.022862 134.45426,283.790203 135.978322,284.408181" id="Fill-123" mask="url(#mask-6)"></path>
        <path d="M140.651718,278.391745 C141.466913,278.391745 142.152151,277.939086 142.628666,277.084937 C143.365099,275.762384 142.994913,274.52249 141.636254,273.774618 L138.584192,272.082064 L138.237635,272.696107 L141.293635,274.392596 C141.793779,274.668128 142.108831,275.014511 142.230913,275.416001 C142.349058,275.81749 142.274233,276.262277 142.006439,276.74249 C141.478728,277.687171 140.608398,277.919405 139.6278,277.380149 L136.575738,275.687596 L136.23312,276.305575 L139.285181,277.998128 C139.753821,278.257915 140.214584,278.391745 140.651718,278.391745" id="Fill-125" mask="url(#mask-6)"></path>
        <polygon id="Fill-128" mask="url(#mask-6)" points="141.334986 269.260618 145.552738 272.240298 145.627563 272.291469 146.041068 271.712852 141.744553 268.682001 142.819666 267.170511 142.240759 266.761149 139.736099 270.287958 139.680965 270.362745 140.259872 270.776043"></polygon>
        <path d="M150.302534,266.448224 L150.79874,265.944394 L149.475524,264.641522 L150.463998,263.645671 C151.495792,262.602586 151.558802,261.437479 150.633338,260.528224 C150.235586,260.134607 149.763008,259.92599 149.27074,259.92599 C148.680019,259.92599 148.081421,260.217266 147.537957,260.764394 L146.053276,262.264075 L150.235586,266.385245 L150.302534,266.448224 Z M147.053565,262.260139 L148.042039,261.264288 C148.774534,260.524288 149.534596,260.437692 150.133194,261.032054 C150.420678,261.311522 150.56639,261.614607 150.56639,261.933437 C150.570328,262.323118 150.357668,262.740352 149.955977,263.145777 L148.971441,264.145564 L147.053565,262.260139 Z" id="Fill-129" mask="url(#mask-6)"></path>
        <path d="M154.308414,262.519532 L153.85159,260.767937 L156.123899,258.925809 L157.699157,259.701235 L157.750353,259.724852 L158.364703,259.228894 L152.44961,256.351554 L152.043981,256.682192 L153.690126,263.019426 L154.308414,262.519532 Z M155.418971,258.583362 L153.650744,260.016128 L152.957631,257.38283 L155.418971,258.583362 Z" id="Fill-131" mask="url(#mask-6)"></path>
        <polygon id="Fill-132" mask="url(#mask-6)" points="157.038336 253.854054 159.948625 258.223203 160.539346 257.829586 157.629058 253.460437 159.176748 252.437032 158.786872 251.842671 155.096831 254.287032 155.486707 254.881394"></polygon>
        <path d="M164.042326,255.710352 L163.18381,254.065032 L164.432202,253.419501 C164.546408,253.360458 164.6488,253.297479 164.743315,253.238437 L166.826594,254.265777 L167.610285,253.864288 L165.337975,252.738543 C165.889315,252.10482 165.968078,251.297905 165.554573,250.506735 C165.192264,249.806096 164.589728,249.420352 163.861171,249.420352 C163.443728,249.420352 162.998718,249.538437 162.534016,249.778543 L160.65946,250.754713 L163.408285,256.033118 L164.042326,255.710352 Z M161.616429,251.053862 L162.864821,250.40833 C163.794223,249.928118 164.530656,250.06982 164.92447,250.829501 C165.129254,251.219181 165.160759,251.585245 165.022924,251.915884 C164.885089,252.250458 164.573975,252.545671 164.101398,252.789713 L162.856944,253.435245 L161.616429,251.053862 Z" id="Fill-133" mask="url(#mask-6)"></path>
        <polygon id="Fill-135" mask="url(#mask-6)" points="167.104627 247.658522 169.361184 253.16916 170.018854 252.905437 167.762297 247.390862"></polygon>
        <path d="M172.299433,252.010745 L174.646567,251.298298 C175.292423,251.105426 175.765,250.810213 176.048546,250.424469 C176.347845,250.019043 176.42267,249.527022 176.265144,249.011384 C176.08399,248.409149 175.646856,248.011596 175.060072,247.897447 C175.316052,247.531384 175.375124,247.070852 175.229412,246.586703 C175.012814,245.882128 174.457536,245.476703 173.701412,245.476703 C173.457247,245.476703 173.193392,245.516064 172.913784,245.60266 L170.566649,246.311171 L172.271866,251.924149 L172.299433,252.010745 Z M174.548113,246.79532 C174.634753,247.070852 174.607186,247.310958 174.469351,247.511703 C174.319701,247.724256 174.036155,247.901384 173.650216,248.019469 L171.980443,248.523298 L171.452732,246.783511 L173.122505,246.279681 C173.866814,246.051384 174.378773,246.232447 174.548113,246.79532 L174.548113,246.79532 Z M172.77201,251.125107 L172.185227,249.196384 L173.855,248.692554 C174.138546,248.605958 174.394526,248.56266 174.622938,248.56266 C175.134897,248.56266 175.461763,248.779149 175.591722,249.208192 C175.835887,250.015107 175.103392,250.424469 174.441784,250.621277 L172.77201,251.125107 Z" id="Fill-136" mask="url(#mask-6)"></path>
        <path d="M180.383262,249.900171 C180.55654,249.900171 180.741633,249.884426 180.926726,249.849001 C181.663159,249.726979 182.23419,249.404213 182.576808,248.908256 C182.923365,248.412298 183.037571,247.774639 182.907612,247.014958 L182.344458,243.669213 L182.328705,243.578681 L181.627715,243.696766 L182.206623,247.133043 C182.301138,247.695915 182.226313,248.156447 181.990025,248.498894 C181.749798,248.841341 181.355984,249.061766 180.81252,249.152298 C179.717715,249.329426 179.016726,248.809852 178.827695,247.699852 L178.26454,244.350171 L178.248788,244.259639 L177.547798,244.38166 L178.126705,247.814001 C178.351179,249.14049 179.174252,249.900171 180.383262,249.900171" id="Fill-138" mask="url(#mask-6)"></path>
        <path d="M187.001707,248.47882 L186.946573,248.47882 C186.367666,248.47882 185.784821,248.270203 185.426449,247.931692 L185.225604,247.734884 L184.741212,248.258394 L184.945996,248.44733 C185.442202,248.903926 186.194388,249.191266 186.907192,249.191266 C186.950511,249.191266 186.989893,249.18733 187.033212,249.18733 C187.655439,249.155841 188.175274,248.982649 188.537584,248.687437 C188.907769,248.384352 189.092862,247.971054 189.065295,247.498713 C189.018037,246.25882 187.954738,245.995096 187.104099,245.782543 C186.166821,245.550309 185.72181,245.373181 185.690305,244.767011 C185.682429,244.601692 185.733625,244.456054 185.847831,244.334032 C186.056553,244.101798 186.446429,243.960096 186.942635,243.936479 L186.997769,243.936479 C187.434903,243.936479 187.899604,244.03882 188.171336,244.196266 L188.415501,244.337969 L188.75812,243.727862 L188.521831,243.590096 C188.096511,243.346054 187.458532,243.200415 186.91113,243.231905 C185.713934,243.287011 184.93812,243.920735 184.981439,244.802437 C185.040511,245.999032 186.08412,246.25882 186.919006,246.467437 C187.875975,246.707543 188.328862,246.888607 188.356429,247.530203 C188.368243,247.782118 188.265852,247.994671 188.049254,248.15999 C187.809027,248.34499 187.442779,248.455203 187.001707,248.47882" id="Fill-140" mask="url(#mask-6)"></path>
        <path d="M195.999579,249.467192 C196.145291,249.482937 196.283126,249.490809 196.413085,249.490809 C197.468507,249.490809 198.185249,248.971235 198.283703,248.136766 C198.441229,246.908681 197.44094,246.471766 196.633621,246.125384 C195.747538,245.735703 195.337971,245.487724 195.408858,244.88549 C195.456115,244.495809 195.853868,244.259639 196.476095,244.259639 C196.574548,244.259639 196.680878,244.267511 196.78327,244.27932 C197.216466,244.326554 197.677229,244.507618 197.952899,244.735915 L198.173435,244.916979 L198.606631,244.365915 L198.397909,244.19666 C198.019847,243.881766 197.417311,243.637724 196.869909,243.574745 C196.732074,243.559001 196.598177,243.551128 196.472157,243.551128 C195.471868,243.551128 194.794507,244.031341 194.70393,244.80283 C194.562157,245.99549 195.546693,246.424532 196.33826,246.766979 C197.244033,247.164532 197.661476,247.416447 197.578775,248.050171 C197.527579,248.510703 197.090445,248.786235 196.420961,248.786235 C196.310693,248.786235 196.200425,248.778362 196.08228,248.762618 C195.511249,248.695703 194.93628,248.384745 194.625167,247.963575 L194.455827,247.735277 L193.892672,248.176128 L194.062012,248.392618 C194.503085,248.959426 195.263146,249.380596 195.999579,249.467192" id="Fill-142" mask="url(#mask-6)"></path>
        <polygon id="Fill-145" mask="url(#mask-6)" points="200.134237 250.01432 200.118485 250.100915 200.815536 250.246554 201.981227 244.503681 201.996979 244.413149 201.303866 244.267511"></polygon>
        <polygon id="Fill-146" mask="url(#mask-6)" points="204.156264 251.058192 204.841501 251.251064 206.282862 246.20883 208.074718 246.716596 208.267687 246.035639 204.006614 244.819362 203.813645 245.50032 205.601563 246.012022"></polygon>
        <path d="M214.736482,254.883362 C215.894297,254.883362 216.926091,254.253575 217.426235,253.241979 C218.150854,251.769852 217.516812,249.967086 216.008503,249.223149 L213.846462,248.16432 L211.211843,253.505703 L213.369946,254.564532 C213.799204,254.777086 214.259967,254.883362 214.736482,254.883362 L214.736482,254.883362 Z M215.693452,249.860809 C216.256606,250.136341 216.677988,250.608681 216.882771,251.187298 C217.091493,251.769852 217.056049,252.38783 216.788256,252.931022 C216.410194,253.698575 215.622565,254.174852 214.736482,254.174852 C214.370235,254.174852 214.015802,254.092192 213.684998,253.930809 L212.160936,253.182937 L214.173328,249.112937 L215.693452,249.860809 Z" id="Fill-147" mask="url(#mask-6)"></path>
        <polygon id="Fill-149" mask="url(#mask-6)" points="217.630231 256.864043 220.94221 259.028937 221.017035 259.080107 221.406911 258.485745 218.614767 256.663298 219.709571 254.990426 222.037014 256.509788 222.111839 256.560958 222.505654 255.970532 220.099447 254.400001 221.107612 252.864894 223.809179 254.628298 224.199056 254.041809 220.977654 251.935958 220.902829 251.884788 217.681427 256.789256"></polygon>
        <path d="M223.364563,260.04132 C223.407882,260.639618 223.734748,261.206426 224.305779,261.686639 C224.821676,262.119618 225.361202,262.340043 225.904666,262.340043 C226.570212,262.340043 227.21213,261.997596 227.755594,261.352064 L229.945202,258.754192 L230.004274,258.683341 L229.46081,258.230681 L227.21213,260.895469 C226.491449,261.749618 225.593553,261.840149 224.762604,261.143447 C224.341223,260.789192 224.108872,260.399511 224.081305,259.982277 C224.0498,259.565043 224.223078,259.132064 224.589326,258.695149 L226.838006,256.030362 L226.294542,255.577703 L224.045862,258.24249 C223.549656,258.828979 223.321243,259.435149 223.364563,260.04132" id="Fill-150" mask="url(#mask-6)"></path>
        <path d="M230.903746,265.811352 C230.517808,266.177415 229.868014,266.004224 229.296984,265.40199 C228.899231,264.984756 228.662942,264.374649 228.690509,263.855075 L228.706262,263.567735 L227.993458,263.55199 L227.985581,263.823586 C227.958014,264.539969 228.269128,265.35082 228.781087,265.886139 C229.289107,266.425394 229.868014,266.720607 230.411478,266.720607 C230.777726,266.720607 231.116406,266.586777 231.388138,266.32699 C232.301788,265.484649 231.80952,264.508479 231.415705,263.729118 C230.986447,262.86316 230.828922,262.414437 231.269994,261.993266 C231.604736,261.682309 232.199396,261.855501 232.719231,262.406564 C233.01853,262.721458 233.254819,263.150501 233.321767,263.504756 L233.372963,263.780288 L234.062138,263.642522 L234.010942,263.374862 C233.920365,262.894649 233.617128,262.323905 233.235128,261.922415 C232.754674,261.414649 232.199396,261.131245 231.671685,261.131245 C231.333004,261.131245 231.025829,261.253266 230.781664,261.477628 C229.911334,262.304224 230.391788,263.264649 230.777726,264.032203 C231.218798,264.913905 231.372386,265.374437 230.903746,265.811352" id="Fill-152" mask="url(#mask-6)"></path>
        <polygon id="Fill-155" mask="url(#mask-6)" points="233.608858 271.622713 233.998734 272.217075 237.913249 269.654628 235.912672 274.917288 235.861476 275.051118 236.219847 275.594309 241.134652 272.378458 241.213414 272.327288 240.823538 271.732926 236.909023 274.295373 238.905662 269.032713 238.956858 268.898884 238.598487 268.355692 233.683682 271.571543"></polygon>
        <path d="M239.831126,275.826149 C239.114384,276.168596 238.578796,276.782639 238.322816,277.550192 C238.066837,278.317745 238.118033,279.140405 238.472466,279.868596 C238.984425,280.92349 240.063476,281.608384 241.229167,281.608384 C241.670239,281.608384 242.095559,281.509979 242.493311,281.317107 C243.974054,280.60466 244.580528,278.790086 243.848033,277.278596 C243.336074,276.219766 242.253085,275.538809 241.09527,275.538809 C240.654198,275.538809 240.228878,275.633277 239.831126,275.826149 M240.142239,276.463809 C240.4376,276.318171 240.760528,276.24732 241.09527,276.24732 C241.985291,276.24732 242.812301,276.77083 243.206115,277.585618 C243.76927,278.746788 243.312445,280.136256 242.186136,280.679447 C241.886837,280.825086 241.563909,280.895937 241.229167,280.895937 C240.335208,280.895937 239.50426,280.372426 239.110445,279.561575 C238.547291,278.396469 239.008054,277.007001 240.142239,276.463809" id="Fill-156" mask="url(#mask-6)"></path>
        <path d="M241.207113,286.611256 C241.565485,287.670086 242.195588,288.252639 242.987155,288.252639 C243.168309,288.252639 243.35734,288.221149 243.550309,288.158171 C244.156784,287.95349 244.534845,287.516575 244.629361,286.922213 C244.999546,287.158384 245.472124,287.205618 245.948639,287.048171 C246.425155,286.886788 246.759897,286.579766 246.917423,286.162532 C247.07101,285.753171 247.05132,285.265086 246.866227,284.714022 L246.082536,282.391681 L240.423423,284.288915 L241.207113,286.611256 Z M243.333711,287.489022 C242.715423,287.701575 242.187711,287.296149 241.880536,286.386894 L241.325258,284.737639 L243.243134,284.096043 L243.798412,285.741362 C244.018948,286.394766 244.117402,287.225298 243.333711,287.489022 L243.333711,287.489022 Z M245.637526,283.289128 L246.192804,284.938384 C246.370021,285.461894 246.433031,286.138915 245.720227,286.379022 C245.606021,286.414447 245.499691,286.434128 245.397299,286.434128 C244.881402,286.434128 244.605732,285.938171 244.463959,285.517001 L243.90868,283.871681 L245.637526,283.289128 Z" id="Fill-158" mask="url(#mask-6)"></path>
        <polygon id="Fill-161" mask="url(#mask-6)" points="242.467713 290.647405 242.381074 290.667086 242.542538 291.359852 248.083507 290.029426 248.351301 289.970384 248.185899 289.281554"></polygon>
        <path d="M247.450647,292.683586 C246.261328,292.872522 246.115616,293.935288 245.997472,294.785501 C245.863575,295.761671 245.729678,296.230075 245.095637,296.324543 C244.560049,296.407203 244.13473,295.919118 244.000833,295.080713 C243.910256,294.513905 244.059905,293.880181 244.378895,293.466884 L244.552173,293.238586 L243.977204,292.821352 L243.811802,293.041777 C243.386482,293.616458 243.185637,294.462735 243.299843,295.190926 C243.480998,296.336352 244.118977,297.044862 244.969616,297.044862 C245.044441,297.044862 245.123204,297.03699 245.205905,297.025181 C246.430668,296.840181 246.580318,295.761671 246.698462,294.895713 C246.832359,293.939224 246.962318,293.478692 247.560915,293.384224 C248.021678,293.305501 248.39974,293.769969 248.521823,294.541458 C248.592709,294.966564 248.541513,295.454649 248.395802,295.785288 L248.281596,296.041139 L248.927452,296.316671 L249.03772,296.064756 C249.238565,295.616032 249.309452,294.974437 249.222812,294.431245 C249.053472,293.340926 248.458812,292.663905 247.671184,292.663905 C247.600297,292.663905 247.525472,292.671777 247.450647,292.683586" id="Fill-162" mask="url(#mask-6)"></path>
        <path d="M130.578338,304.156735 L130.775245,304.388969 L131.259637,303.889075 L131.098173,303.700139 C130.735864,303.271096 130.538957,302.720032 130.550771,302.149288 C130.5744,300.905458 131.598318,299.893862 132.834895,299.893862 C133.425616,299.905671 133.980895,300.153649 134.3944,300.598437 C134.811843,301.039288 135.032379,301.621841 135.020565,302.235884 C135.008751,302.814501 134.796091,303.357692 134.421967,303.763118 L134.248689,303.95599 L134.729142,304.448011 L134.922111,304.231522 C135.418318,303.692266 135.697926,302.987692 135.713678,302.251628 C135.745184,300.602373 134.461348,299.232586 132.846709,299.201096 L132.795513,299.201096 C131.204503,299.201096 129.889163,300.519713 129.857658,302.137479 C129.845843,302.869607 130.101823,303.589926 130.578338,304.156735" id="Fill-164" mask="url(#mask-6)"></path>
        <polygon id="Fill-167" mask="url(#mask-6)" points="130.045113 306.48616 129.958474 306.490096 129.997856 307.186798 135.751485 306.828607 135.842062 306.824671 135.80268 306.127969"></polygon>
        <polygon id="Fill-168" mask="url(#mask-6)" points="136.531237 312.729713 131.616433 311.470139 135.991711 308.89982 135.885381 308.140139 130.427113 311.367798 130.501938 311.895245 136.637567 313.497266"></polygon>
        <polygon id="Fill-169" mask="url(#mask-6)" points="131.335249 316.012086 131.244672 316.031766 131.39826 316.712724 137.116445 315.453149 136.966796 314.772192"></polygon>
        <polygon id="Fill-170" mask="url(#mask-6)" points="137.999771 321.264118 138.669256 321.063373 137.42874 316.910713 136.759256 317.111458 137.279091 318.851245 132.33672 320.323373 132.537565 320.992522 137.479936 319.520394"></polygon>
        <path d="M139.614016,323.499862 L133.320862,323.200713 L133.179089,323.192841 L133.470511,323.921032 L135.246614,324.003692 L136.313852,326.656671 L135.089089,327.943798 L135.380511,328.664118 L139.806986,323.980075 L139.614016,323.499862 Z M138.684614,324.153266 L136.845501,326.097735 L136.014553,324.035181 L138.684614,324.153266 Z" id="Fill-171" mask="url(#mask-6)"></path>
        <polygon id="Fill-172" mask="url(#mask-6)" points="142.178142 330.601501 142.804307 330.286607 140.86674 326.507884 140.823421 326.42916 140.201194 326.744054 141.032142 328.36182 136.522967 330.664479 136.440266 330.703841 136.759256 331.325756 141.351132 328.987671"></polygon>
        <polygon id="Fill-173" mask="url(#mask-6)" points="138.654291 334.529011 138.575528 334.576245 138.937837 335.174543 143.872332 332.194862 143.947157 332.143692 143.584847 331.54933"></polygon>
        <path d="M146.690468,336.939128 C146.666839,336.458915 146.446303,335.864554 146.131252,335.423703 C145.678365,334.793915 145.099458,334.431788 144.540241,334.431788 C144.272447,334.431788 144.028282,334.514447 143.807746,334.671894 C142.846839,335.356788 143.18552,336.352639 143.457252,337.151681 C143.768365,338.064873 143.858942,338.533277 143.346984,338.891469 C142.925602,339.19849 142.31519,338.942639 141.842612,338.281362 C141.515746,337.824766 141.366097,337.202852 141.464551,336.702958 L141.515746,336.427426 L140.822633,336.309341 L140.775375,336.580937 C140.653293,337.273703 140.8502,338.100298 141.27552,338.686788 C141.755973,339.355937 142.346695,339.725937 142.941355,339.725937 C143.232777,339.725937 143.508447,339.635405 143.752612,339.462213 C144.748963,338.761575 144.402406,337.749979 144.126736,336.939128 C143.819561,336.041681 143.728984,335.585086 144.213375,335.238703 C144.583561,334.978915 145.127025,335.222958 145.564159,335.829128 C145.812262,336.175511 145.981602,336.624235 146.001293,336.974554 L146.013107,337.254022 L146.702282,337.206788 L146.690468,336.939128 Z" id="Fill-174" mask="url(#mask-6)"></path>
        <path d="M152.050282,342.360022 L150.581355,340.899703 L146.513252,344.973639 L146.450241,345.040554 L146.946447,345.532575 L148.230282,344.241511 L149.203004,345.209809 C149.289643,345.292469 149.372344,345.367256 149.46686,345.449915 L149.120303,347.693532 L149.734654,348.303639 L150.116654,345.855341 C150.364757,345.965554 150.620736,346.016724 150.872777,346.016724 C151.37686,346.016724 151.861252,345.800235 152.270819,345.390873 C153.152963,344.509171 153.070262,343.375554 152.050282,342.360022 M151.774612,344.898852 C151.1642,345.508958 150.423829,345.434171 149.69921,344.717788 L148.726489,343.74949 L150.585293,341.887681 L151.558014,342.855979 C152.073911,343.367681 152.530736,344.139171 151.774612,344.898852" id="Fill-176" mask="url(#mask-6)"></path>
        <polygon id="Fill-179" mask="url(#mask-6)" points="155.295707 346.257224 157.7728 348.225309 158.209934 347.678181 155.185439 345.273181 151.534779 349.839139 154.641975 352.311054 155.079109 351.763926 152.519315 349.732862 153.74014 348.205628 155.941563 349.957224 156.378697 349.410096 154.177274 347.658501"></polygon>
        <path d="M163.093627,351.741884 C162.880967,351.037309 162.420204,350.435075 161.794039,350.04933 C161.309647,349.746245 160.754369,349.584862 160.183338,349.584862 C159.159421,349.584862 158.230019,350.088692 157.702307,350.934969 C157.284864,351.596245 157.162781,352.383479 157.347874,353.151032 C157.532967,353.918586 158.009482,354.575926 158.690781,354.997096 C159.171235,355.300181 159.730452,355.457628 160.305421,355.457628 C160.474761,355.457628 160.636225,355.44582 160.797689,355.422203 L160.919771,355.402522 L162.144534,353.446245 L161.549874,353.072309 L160.494452,354.760926 C159.994307,354.804224 159.482348,354.678266 159.057029,354.414543 C158.533256,354.087841 158.167008,353.584011 158.025235,352.989649 C157.879524,352.40316 157.974039,351.800926 158.289091,351.301032 C158.690781,350.655501 159.399647,350.273692 160.183338,350.273692 C160.620472,350.273692 161.04973,350.399649 161.427792,350.631884 C161.92006,350.938905 162.274493,351.399437 162.432019,351.93082 L162.506843,352.174862 L163.180266,352.021352 L163.093627,351.741884 Z" id="Fill-180" mask="url(#mask-6)"></path>
        <polygon id="Fill-182" mask="url(#mask-6)" points="162.88333 357.364309 163.505557 357.683139 166.15199 352.467713 165.525825 352.15282"></polygon>
        <polygon id="Fill-183" mask="url(#mask-6)" points="169.332829 358.286554 168.856313 353.759958 168.194705 353.508043 166.099612 358.959639 166.749406 359.211554 168.293159 355.208469 168.71454 359.187937 168.749984 359.34932 169.053221 359.475277 172.15254 356.688469 170.620602 360.69549 171.274334 360.939532 173.369427 355.487937 172.711757 355.236022"></polygon>
        <polygon id="Fill-184" mask="url(#mask-6)" points="174.083412 361.636628 174.059784 361.723224 174.737144 361.904288 176.265144 356.267692 175.591722 356.082692"></polygon>
        <polygon id="Fill-185" mask="url(#mask-6)" points="181.643074 362.033394 179.138414 356.963607 178.504373 356.853394 177.515899 362.612011 178.205074 362.72616 178.980889 358.219245 181.485548 363.289032 182.115652 363.399245 183.108064 357.640628 182.418889 357.526479"></polygon>
        <polygon id="Fill-186" mask="url(#mask-6)" points="185.058627 363.688554 189.024338 363.889298 189.059781 363.192596 185.79506 363.027277 185.893513 361.074937 188.705348 361.220575 188.740792 360.519937 185.928957 360.378235 186.023472 358.587277 189.181864 358.74866 189.217307 358.051958 185.357926 357.855149"></polygon>
        <path d="M197.102654,357.552852 C196.972695,357.552852 196.838798,357.560724 196.708839,357.580405 L194.365643,357.879554 L195.102076,363.583064 L195.113891,363.673596 L197.453148,363.370511 C198.244715,363.268171 198.949643,362.874554 199.437973,362.252639 C199.934179,361.63466 200.150777,360.867107 200.048386,360.095618 C199.863293,358.647107 198.59521,357.552852 197.102654,357.552852 L197.102654,357.552852 Z M195.716427,362.890298 L195.149334,358.481788 L196.795478,358.269235 C196.89787,358.257426 196.996324,358.249554 197.098715,358.249554 C198.240777,358.249554 199.213499,359.084022 199.355272,360.186149 C199.512798,361.39849 198.618839,362.516362 197.366509,362.677745 L195.716427,362.890298 Z" id="Fill-187" mask="url(#mask-6)"></path>
        <path d="M204.380738,356.122841 C204.116882,356.122841 203.853027,356.158266 203.597047,356.225181 C201.998161,356.650288 201.037254,358.264118 201.450759,359.814969 C201.789439,361.086352 202.970882,361.97199 204.321666,361.97199 C204.585522,361.97199 204.849377,361.936564 205.105357,361.869649 C206.704243,361.444543 207.661212,359.830713 207.247707,358.27199 C206.909027,357.008479 205.731522,356.122841 204.380738,356.122841 M204.924202,361.196564 C204.723357,361.247735 204.522511,361.275288 204.321666,361.275288 C203.289872,361.275288 202.388037,360.602203 202.12812,359.633905 C201.974532,359.067096 202.065109,358.468798 202.376223,357.95316 C202.687336,357.429649 203.183542,357.059649 203.774264,356.902203 C203.975109,356.847096 204.175955,356.823479 204.380738,356.823479 C205.412532,356.823479 206.314367,357.492628 206.570346,358.453054 C206.889336,359.637841 206.148965,360.869862 204.924202,361.196564" id="Fill-189" mask="url(#mask-6)"></path>
        <path d="M216.673262,350.799958 L217.338808,357.188362 L218.012231,356.790809 L217.827138,355.027405 L220.296355,353.574958 L221.757406,354.586554 L222.430829,354.196873 L217.118272,350.536235 L216.673262,350.799958 Z M219.666252,353.138043 L217.744437,354.263788 L217.460891,351.618681 L219.666252,353.138043 Z" id="Fill-192" mask="url(#mask-6)"></path>
        <polygon id="Fill-193" mask="url(#mask-6)" points="223.314942 347.190096 222.901437 346.627224 219.384674 349.166054 219.794241 349.728926 221.271045 348.66616 224.291602 352.834564 224.858695 352.421266 221.838138 348.256798"></polygon>
        <path d="M225.288346,344.588681 L224.89847,344.927192 L226.737584,351.083362 L227.328305,350.57166 L226.816346,348.871235 L228.974449,346.985809 L230.600903,347.714001 L231.183748,347.202298 L225.339542,344.612298 L225.288346,344.588681 Z M228.27346,346.674852 L226.59581,348.139107 L225.823934,345.588469 L228.27346,346.674852 Z" id="Fill-194" mask="url(#mask-6)"></path>
        <path d="M231.416887,338.249086 L234.212969,343.877809 L234.275979,344.003766 L234.768247,343.397596 L233.97668,341.807384 L235.784289,339.587384 L237.509196,340.028235 L238.001464,339.426001 L231.743753,337.847596 L231.416887,338.249086 Z M235.039979,339.398447 L233.634062,341.12249 L232.440804,338.741107 L235.039979,339.398447 Z" id="Fill-195" mask="url(#mask-6)"></path>
        <path d="M238.196402,337.503575 C238.050691,337.712192 238.105825,338.011341 238.314546,338.156979 C238.393309,338.208149 238.483887,338.239639 238.58234,338.239639 C238.739866,338.239639 238.885577,338.164852 238.972216,338.038894 C239.043103,337.936554 239.066732,337.810596 239.047041,337.684639 C239.023412,337.562618 238.956464,337.452405 238.854072,337.38549 C238.653227,337.247724 238.334237,337.306766 238.196402,337.503575" id="Fill-196" mask="url(#mask-6)"></path>
        <path d="M240.627812,329.639501 C240.194616,329.387586 239.69841,329.257692 239.194328,329.257692 C238.131029,329.257692 237.134678,329.836309 236.595153,330.765245 L235.417647,332.812054 L240.493915,335.720884 L241.671421,333.678011 C242.069173,332.989181 242.179441,332.190139 241.982534,331.426522 C241.785627,330.662905 241.305173,330.025245 240.627812,329.639501 L240.627812,329.639501 Z M236.374616,332.552266 L237.201627,331.115564 C237.615132,330.399181 238.379132,329.954394 239.194328,329.954394 C239.576328,329.954394 239.950452,330.056735 240.277318,330.241735 C241.340616,330.855777 241.695049,332.241309 241.064946,333.331628 L240.237936,334.76833 L236.374616,332.552266 Z" id="Fill-198" mask="url(#mask-6)"></path>
        <path d="M243.799988,328.679075 C243.579452,328.576735 243.272276,328.686947 243.173823,328.903437 C243.118689,329.017586 243.114751,329.143543 243.15807,329.261628 C243.197452,329.383649 243.284091,329.474181 243.398297,329.529288 C243.461307,329.556841 243.528256,329.572586 243.595204,329.572586 C243.780297,329.572586 243.949637,329.466309 244.024462,329.304926 C244.079596,329.190777 244.083534,329.06482 244.040214,328.942798 C243.996895,328.824713 243.910256,328.730245 243.799988,328.679075" id="Fill-200" mask="url(#mask-6)"></path>
        <polygon id="Fill-203" mask="url(#mask-6)" points="240.564408 322.360341 241.226016 322.588639 241.596202 321.510128 246.475563 323.167256 246.700037 322.509915 241.15513 320.62449"></polygon>
        <path d="M246.98319,315.608628 C246.2822,315.392139 245.616654,315.588947 245.108633,316.147884 C244.919602,315.577139 244.521849,315.187458 243.950819,315.014266 C243.77754,314.95916 243.604262,314.935543 243.434922,314.935543 C242.576406,314.935543 241.91086,315.600756 241.603685,316.765862 C241.426468,317.435011 241.430406,318.045118 241.611561,318.529266 C241.808468,319.052777 242.198344,319.414905 242.741808,319.576288 C243.308901,319.745543 243.844489,319.639266 244.281623,319.261394 C244.443087,320.03682 244.899911,320.56033 245.612715,320.77682 C245.797808,320.831926 245.982901,320.863415 246.164056,320.867352 L246.215252,320.871288 C247.184035,320.871288 247.940159,320.111607 248.286715,318.789054 C248.515128,317.923096 248.479685,317.159479 248.180386,316.580862 C247.936221,316.108522 247.522715,315.770011 246.98319,315.608628 M247.518777,318.560756 C247.223416,319.674692 246.597252,320.186394 245.821437,319.95416 C245.47488,319.847884 245.238592,319.619586 245.116509,319.277139 C244.986551,318.903203 244.994427,318.403309 245.140138,317.840437 C245.384303,316.907564 245.85688,316.372245 246.431849,316.372245 L246.459416,316.372245 C246.553932,316.376181 246.652386,316.391926 246.750839,316.423415 C247.132839,316.537564 247.392757,316.777671 247.526654,317.12799 C247.668427,317.501926 247.664489,317.997884 247.518777,318.560756 M244.3722,317.608203 C244.131973,318.513522 243.604262,318.958309 242.982035,318.765437 C242.35587,318.576501 242.131396,317.911288 242.375561,316.990224 C242.576406,316.226607 242.970221,315.789692 243.454612,315.789692 L243.478241,315.789692 C243.56488,315.789692 243.655458,315.805437 243.746035,315.83299 C244.05321,315.927458 244.26587,316.12033 244.376138,316.411607 C244.498221,316.722564 244.498221,317.135862 244.3722,317.608203" id="Fill-204" mask="url(#mask-6)"></path>
        <path d="M248.313101,313.218979 L246.804792,311.38866 C246.261328,310.684086 245.623348,310.211745 245.095637,310.133022 C244.178049,309.995256 243.500689,310.589618 243.335287,311.652384 C243.240771,312.278235 243.429802,312.971001 243.839369,313.502384 L244.000833,313.714937 L244.563988,313.301639 L244.394647,313.081213 C244.103225,312.703341 243.961452,312.191639 244.0284,311.754724 C244.130792,311.093447 244.485225,310.739192 244.993245,310.821852 C245.331926,310.873022 245.824194,311.262703 246.253452,311.813766 L248.242214,314.234511 L248.261905,314.262064 L248.848689,314.34866 L249.451225,310.396745 L248.758111,310.290469 L248.313101,313.218979 Z" id="Fill-206" mask="url(#mask-6)"></path>
        <path d="M249.001882,307.55483 L247.328171,305.870149 C246.721697,305.216745 246.044336,304.81132 245.516625,304.77983 C244.610852,304.705043 243.961058,305.382064 243.901986,306.452703 C243.862604,307.086426 244.114645,307.759511 244.57147,308.251532 L244.752625,308.448341 L245.276398,307.987809 L245.087367,307.783128 C244.760501,307.428873 244.575408,306.936852 244.599037,306.492064 C244.638419,305.83866 244.925903,305.476532 245.410295,305.476532 L245.473305,305.476532 C245.811986,305.496213 246.351511,305.846532 246.820151,306.350362 L249.025511,308.570362 L249.04914,308.597915 L249.639862,308.633341 L249.872212,304.638128 L249.175161,304.598766 L249.001882,307.55483 Z" id="Fill-208" mask="url(#mask-6)"></path>
        <path d="M148.598499,303.388001 L148.594561,303.388001 L148.594561,303.388001 C148.566994,303.388001 148.547303,303.411618 148.519736,303.41949 C148.472478,303.435235 148.421282,303.447043 148.389777,303.482469 C148.385839,303.482469 148.381901,303.482469 148.381901,303.486405 L145.735468,306.410979 C145.684272,306.462149 145.656705,306.533001 145.656705,306.607788 L145.656705,309.981086 C145.656705,310.146405 145.790602,310.280235 145.956004,310.280235 C146.117468,310.280235 146.251365,310.146405 146.251365,309.981086 L146.251365,306.721937 L148.614252,304.112256 L151.237056,306.729809 L151.237056,309.981086 C151.237056,310.146405 151.370953,310.280235 151.536355,310.280235 C151.697819,310.280235 151.831715,310.146405 151.831715,309.981086 L151.831715,306.903001 L155.253963,306.903001 L155.253963,309.981086 C155.253963,310.146405 155.38786,310.280235 155.549324,310.280235 C155.714726,310.280235 155.848623,310.146405 155.848623,309.981086 L155.848623,303.486405 L158.211509,295.850235 L160.834313,303.494277 L160.834313,303.494277 L160.834313,309.981086 C160.834313,310.146405 160.96821,310.280235 161.129674,310.280235 C161.295076,310.280235 161.428973,310.146405 161.428973,309.981086 L161.428973,306.903001 L167.257427,306.903001 L167.257427,310.146405 C167.257427,310.307788 167.387386,310.441618 167.552788,310.441618 C167.714252,310.441618 167.848148,310.307788 167.848148,310.146405 L167.848148,306.269277 C167.848148,306.190554 167.816643,306.115766 167.761509,306.06066 L165.154458,303.494277 L165.154458,302.671618 L167.517344,300.061937 L170.140148,302.67949 L170.140148,310.016511 C170.140148,310.177894 170.274045,310.311724 170.439447,310.311724 C170.600911,310.311724 170.734808,310.177894 170.734808,310.016511 L170.734808,302.852681 L179.34753,302.852681 L179.34753,310.118852 C179.34753,310.280235 179.481427,310.414064 179.642891,310.414064 C179.808293,310.414064 179.938252,310.280235 179.938252,310.118852 L179.938252,302.557469 C179.938252,302.478745 179.906746,302.403958 179.851612,302.348852 L179.359344,301.85683 L181.59621,299.384915 L184.219014,302.006405 L184.219014,310.221192 C184.219014,310.382575 184.352911,310.516405 184.514375,310.516405 C184.679777,310.516405 184.813674,310.382575 184.813674,310.221192 L184.813674,302.270128 L198.17186,302.270128 L198.17186,303.443107 L198.156107,303.462788 L198.17186,303.474596 L198.17186,310.221192 C198.17186,310.382575 198.301819,310.516405 198.467221,310.516405 C198.628685,310.516405 198.762581,310.382575 198.762581,310.221192 L198.762581,303.687149 L208.899365,303.687149 L208.899365,310.480979 C208.899365,310.646298 209.033262,310.780128 209.198664,310.780128 C209.360128,310.780128 209.494025,310.646298 209.494025,310.480979 L209.494025,303.391937 C209.494025,303.376192 209.478272,303.364384 209.478272,303.348639 C209.478272,303.33683 209.494025,303.325022 209.494025,303.309277 C209.494025,303.230554 209.46252,303.155766 209.407386,303.10066 L207.02087,300.719277 L209.08052,298.440235 L211.703324,301.061724 L211.703324,310.390447 C211.703324,310.55183 211.837221,310.68566 212.002623,310.68566 C212.164087,310.68566 212.297984,310.55183 212.297984,310.390447 L212.297984,301.234915 L220.906767,301.234915 L218.504499,303.887894 C218.453303,303.943001 218.425736,304.013852 218.425736,304.088639 L218.425736,310.469171 C218.425736,310.630554 218.559633,310.764384 218.721097,310.764384 C218.886499,310.764384 219.020396,310.630554 219.020396,310.469171 L219.020396,304.202788 L221.383282,301.593107 L224.006087,304.21066 L224.006087,310.516405 C224.006087,310.677788 224.139984,310.811618 224.305386,310.811618 C224.466849,310.811618 224.600746,310.677788 224.600746,310.516405 L224.600746,304.383852 L233.213468,304.383852 L233.213468,310.508532 C233.213468,310.669915 233.343427,310.803745 233.508829,310.803745 C233.674231,310.803745 233.80419,310.669915 233.80419,310.508532 L233.80419,304.088639 C233.80419,304.009915 233.772685,303.935128 233.717551,303.880022 L230.783633,300.951511 C230.728499,300.896405 230.653674,300.864915 230.574911,300.864915 L227.633118,300.864915 L227.633118,296.979915 C227.633118,296.964171 227.617365,296.948426 227.613427,296.932681 C227.613427,296.913001 227.625241,296.89332 227.617365,296.873639 L225.40019,290.410447 C225.360808,290.288426 225.25054,290.209703 225.116643,290.209703 C224.986685,290.213639 224.876416,290.296298 224.837035,290.41832 L222.836458,296.881511 C222.828581,296.901192 222.840396,296.916937 222.840396,296.932681 C222.836458,296.952362 222.820705,296.964171 222.820705,296.979915 L222.820705,300.864915 L221.47386,300.864915 C221.462045,300.817681 221.454169,300.762575 221.418726,300.727149 L218.484808,297.802575 C218.429674,297.747469 218.350911,297.715979 218.272148,297.715979 L209.364066,297.715979 L209.364066,294.878001 C209.364066,294.716618 209.234107,294.582788 209.068705,294.582788 L203.358396,294.582788 L203.358396,290.005022 L198.762581,290.005022 L198.762581,287.304809 L198.770458,287.308745 L198.762581,287.300873 L198.762581,287.163107 L198.979179,287.233958 L198.762581,287.080447 L198.762581,286.458532 L198.691695,286.497894 C198.664128,286.458532 198.636561,286.423107 198.597179,286.39949 L195.895612,284.541618 C195.887736,282.034277 195.875922,281.483213 195.860169,281.357256 L195.864107,281.357256 C195.808973,279.389171 194.233715,277.791086 192.300087,277.633639 L192.300087,274.901937 C192.300087,274.736618 192.16619,274.602788 192.004726,274.602788 C191.839324,274.602788 191.705427,274.736618 191.705427,274.901937 L191.705427,277.633639 C191.185592,277.673001 190.661819,277.787149 190.153798,278.027256 C188.913282,278.613745 188.113839,279.944171 188.113839,281.420235 L188.113839,284.537681 L185.372891,286.427043 C185.341386,286.454596 185.329571,286.490022 185.30988,286.521511 L185.242932,286.521511 L185.242932,290.005022 L181.127571,290.005022 L181.127571,294.582788 L175.058891,294.582788 C174.893489,294.582788 174.759592,294.716618 174.759592,294.878001 L174.759592,299.337681 L167.50553,299.337681 L167.501592,299.337681 L167.497654,299.337681 C167.474025,299.337681 167.458272,299.361298 167.434643,299.365235 C167.379509,299.380979 167.328313,299.392788 167.29287,299.432149 C167.288932,299.432149 167.284994,299.432149 167.284994,299.436086 L164.638561,302.356724 C164.587365,302.41183 164.559798,302.482681 164.559798,302.557469 L164.559798,303.388001 L161.409282,303.388001 C161.405344,303.372256 161.417159,303.360447 161.413221,303.348639 L158.479303,294.795341 C158.439922,294.681192 158.329654,294.602469 158.195757,294.594596 C158.065798,294.598532 157.951592,294.681192 157.916148,294.807149 L155.265777,303.356511 C155.265777,303.364384 155.273654,303.376192 155.269715,303.388001 L148.602437,303.388001 L148.598499,303.388001 Z M151.658437,306.312575 L149.319179,303.978426 L155.253963,303.978426 L155.253963,306.312575 L151.658437,306.312575 Z M164.800025,303.978426 L167.170788,306.312575 L161.428973,306.312575 L161.428973,303.978426 L164.800025,303.978426 Z M212.124705,300.640554 L209.785447,298.310341 L218.150066,298.310341 L220.489324,300.640554 L212.124705,300.640554 Z M184.727035,301.67183 L182.301138,299.255022 L195.411221,299.255022 L197.841056,301.675766 L184.786107,301.675766 C184.766416,301.675766 184.754602,301.691511 184.734911,301.695447 C184.730973,301.691511 184.730973,301.679703 184.727035,301.67183 L184.727035,301.67183 Z M198.762581,301.884384 C198.762581,301.80566 198.731076,301.726937 198.675942,301.67183 L198.179736,301.175873 L206.63887,301.175873 L208.564623,303.092788 L198.762581,303.092788 L198.762581,301.884384 Z M208.773344,297.900979 L206.386829,300.534277 C206.375014,300.546086 206.378953,300.569703 206.371076,300.585447 L197.585076,300.585447 L195.742025,298.747256 C195.686891,298.692149 195.612066,298.66066 195.533303,298.66066 L181.584396,298.66066 C181.580458,298.66066 181.580458,298.664596 181.580458,298.664596 L181.57652,298.66066 L181.57652,298.66066 C181.548953,298.66066 181.5332,298.684277 181.505633,298.692149 C181.458375,298.707894 181.407179,298.719703 181.371736,298.755128 C181.371736,298.755128 181.36386,298.755128 181.36386,298.759064 L178.937963,301.43566 L176.921633,299.424277 C176.862561,299.369171 176.787736,299.337681 176.708973,299.337681 L175.354252,299.337681 L175.354252,295.173213 L208.773344,295.173213 L208.773344,297.900979 Z M178.709551,302.045766 C178.725303,302.065447 178.721365,302.089064 178.737118,302.100873 C178.748932,302.112681 178.768623,302.108745 178.780437,302.116618 L178.926148,302.262256 L170.56153,302.262256 L168.222272,299.928107 L176.586891,299.928107 L178.709551,302.045766 Z M181.722231,294.582788 L202.763736,294.582788 L202.763736,290.599384 L181.722231,290.599384 L181.722231,294.582788 Z M191.996849,282.553852 L198.167922,286.887575 L198.167922,290.005022 L185.837592,290.005022 L185.837592,286.907256 L191.996849,282.553852 Z M230.452829,301.459277 L232.792087,303.793426 L224.427468,303.793426 L222.08821,301.459277 L230.452829,301.459277 Z M223.415365,297.015341 L225.136334,291.461405 L227.042396,297.015341 L227.042396,300.864915 L223.415365,300.864915 L223.415365,297.015341 Z M192.051984,281.896511 L192.000788,281.861086 L191.949592,281.900447 C191.898396,281.90832 191.8472,281.916192 191.815695,281.943745 L188.708499,284.073213 L188.708499,281.416298 C188.708499,280.168532 189.38586,279.046724 190.433406,278.554703 C190.945365,278.314596 191.469138,278.192575 191.988973,278.192575 C193.80052,278.192575 195.273386,279.660766 195.273386,281.467469 C195.273386,281.502894 195.297014,283.463107 195.300953,284.077149 L192.18588,281.951618 C192.150437,281.920128 192.107118,281.916192 192.063798,281.904384 L192.051984,281.896511 Z" id="Fill-210" mask="url(#mask-6)"></path>
        <polygon id="Fill-213" mask="url(#mask-6)" points="212.374777 353.282894 213.997293 357.561511 209.377849 354.53066 209.259705 354.455873 208.661107 354.684171 210.736509 360.147575 211.386303 359.89566 209.763788 355.617043 214.387169 358.647894 214.501375 358.722681 215.099973 358.49832 213.028509 353.034915"></polygon>
        <path d="M157.786977,318.408032 C157.786977,316.825692 156.644915,315.881011 154.727039,315.881011 L150.773142,315.881011 L150.773142,325.560054 L154.727039,325.560054 C156.979658,325.560054 158.271369,324.572075 158.271369,322.851969 C158.271369,321.734096 157.684586,320.883884 156.644915,320.48633 C157.385287,320.084841 157.786977,319.352713 157.786977,318.408032 L157.786977,318.408032 Z M151.556833,316.664309 L154.727039,316.664309 C156.195967,316.664309 157.003287,317.282288 157.003287,318.408032 C157.003287,319.541649 156.195967,320.167501 154.727039,320.167501 L151.556833,320.167501 L151.556833,316.664309 Z M154.727039,324.780692 L151.556833,324.780692 L151.556833,320.935054 L154.727039,320.935054 C156.518895,320.935054 157.503431,321.608139 157.503431,322.836224 C157.503431,324.091862 156.518895,324.780692 154.727039,324.780692 L154.727039,324.780692 Z" id="Fill-214" mask="url(#mask-6)"></path>
        <path d="M165.648301,315.880618 C162.903414,315.880618 160.670487,318.049447 160.670487,320.714235 C160.670487,323.386894 162.903414,325.55966 165.648301,325.55966 C168.393188,325.55966 170.626115,323.386894 170.626115,320.714235 C170.626115,318.049447 168.393188,315.880618 165.648301,315.880618 M169.842425,320.714235 C169.842425,322.957852 167.959992,324.780298 165.648301,324.780298 C163.33661,324.780298 161.454177,322.957852 161.454177,320.714235 C161.454177,318.47849 163.33661,316.663915 165.648301,316.663915 C167.959992,316.663915 169.842425,318.47849 169.842425,320.714235" id="Fill-216" mask="url(#mask-6)"></path>
        <path d="M179.392425,323.075937 C179.408177,321.131469 177.785662,320.643384 176.356115,320.210405 C175.091971,319.832532 173.898713,319.470405 173.898713,318.171469 C173.898713,317.254341 174.843868,316.663915 176.30492,316.663915 C177.084672,316.663915 177.935311,316.888277 178.478775,317.23466 L178.699311,317.380298 L179.10494,316.726894 L178.89228,316.593064 C178.222796,316.160086 177.206755,315.880618 176.30492,315.880618 C174.367353,315.880618 173.115023,316.778064 173.115023,318.171469 C173.115023,320.052958 174.709971,320.533171 176.111951,320.954341 C177.403662,321.344022 178.620548,321.714022 178.608734,323.072001 C178.608734,324.111149 177.592693,324.780298 176.017435,324.780298 C174.985641,324.780298 173.898713,324.339447 173.24892,323.654554 L173.063827,323.461681 L172.508548,324.016681 L172.689703,324.197745 C173.504899,325.028277 174.812363,325.55966 176.017435,325.55966 C178.069208,325.55966 179.392425,324.58349 179.392425,323.075937" id="Fill-218" mask="url(#mask-6)"></path>
        <polygon id="Fill-221" mask="url(#mask-6)" points="188.447794 315.880618 181.355196 315.880618 181.355196 316.663915 184.509649 316.663915 184.509649 325.55966 185.29334 325.55966 185.29334 316.663915 188.447794 316.663915"></polygon>
        <path d="M199.368662,320.714628 C199.368662,318.049841 197.135734,315.881011 194.390847,315.881011 C191.645961,315.881011 189.413033,318.049841 189.413033,320.714628 C189.413033,323.387288 191.645961,325.560054 194.390847,325.560054 C197.135734,325.560054 199.368662,323.387288 199.368662,320.714628 M194.390847,324.780692 C192.079157,324.780692 190.196724,322.958245 190.196724,320.714628 C190.196724,318.478884 192.079157,316.664309 194.390847,316.664309 C196.702538,316.664309 198.584971,318.478884 198.584971,320.714628 C198.584971,322.958245 196.702538,324.780692 194.390847,324.780692" id="Fill-222" mask="url(#mask-6)"></path>
        <polygon id="Fill-224" mask="url(#mask-6)" points="203.285146 317.200415 209.342012 325.525415 209.369579 325.560841 210.157208 325.560841 210.157208 315.881798 209.373518 315.881798 209.373518 324.242224 203.316652 315.917224 203.289085 315.881798 202.501456 315.881798 202.501456 325.560841 203.285146 325.560841"></polygon>
        <polygon id="Fill-225" mask="url(#mask-6)" points="214.748297 325.564384 215.531988 325.564384 215.531988 315.881405 214.748297 315.881405"></polygon>
        <path d="M227.438573,325.507703 L227.462202,325.562809 L228.33647,325.562809 L223.862738,315.934937 L223.839109,315.87983 L223.216882,315.87983 L218.833728,325.432915 L218.774656,325.562809 L219.660738,325.562809 L220.838243,322.976745 L226.268944,322.976745 L227.438573,325.507703 Z M225.890882,322.158022 L221.212367,322.158022 L223.531934,317.064618 L225.890882,322.158022 Z" id="Fill-226" mask="url(#mask-6)"></path>
      </g>
    </g>
</svg>
