<svg width="380" height="371" xmlns="http://www.w3.org/2000/svg" xmlns:xlink="http://www.w3.org/1999/xlink"><defs><path id="a" d="M48.26 176.18h282.502V83.66H48.261z"/><path id="c" d="M379.294 115.057H1.002V1.002h378.292z"/><path id="e" d="M189.86 370.362h-66.776V237.17h133.553v133.192z"/></defs><g fill="none" fill-rule="evenodd"><path d="M282.988 204.234c-50.652-50.552-132.833-50.552-183.533 0l30.627 30.513c33.778-33.705 88.534-33.705 122.346 0l30.56-30.513z" fill="#FFF"/><mask id="b" fill="#fff"><use xlink:href="#a"/></mask><path d="M330.764 143.656c-105.027-99.932-233.8-57.783-282.503 2.03l30.568 30.494c38.235-48.166 142.884-78.259 221.34-1.995l30.595-30.53z" fill="#FFF" mask="url(#b)"/><mask id="d" fill="#fff"><use xlink:href="#c"/></mask><path d="M379.294 78.522C210.284-65.955 49.714 24.75 1 84.537l30.595 30.521C76.782 58.145 221.851 1.248 348.7 109.032l30.595-30.51z" fill="#FFF" mask="url(#d)"/><mask id="f" fill="#fff"><use xlink:href="#e"/></mask><g class="path100" fill="#FFF"><path d="M237.08 256.677c-12.614-12.58-29.382-19.507-47.218-19.507-17.836 0-34.604 6.927-47.218 19.507-12.614 12.577-19.561 29.301-19.561 47.089 0 17.787 6.947 34.512 19.56 47.092 12.61 12.576 29.38 19.504 47.219 19.504 17.836 0 34.608-6.928 47.218-19.504 12.614-12.58 19.557-29.305 19.557-47.092 0-17.788-6.943-34.512-19.557-47.089m-47.218-16.665c17.076 0 33.132 6.628 45.206 18.673 12.074 12.04 18.726 28.053 18.726 45.08 0 17.033-6.652 33.041-18.726 45.086-12.074 12.04-28.13 18.673-45.206 18.673-17.076 0-33.132-6.632-45.206-18.673-12.074-12.045-18.726-28.053-18.726-45.085 0-17.028 6.648-33.04 18.726-45.081 12.074-12.045 28.13-18.673 45.206-18.673" mask="url(#f)"/><path d="M150.562 281.762c.004.043.036.075.055.11a2.761 2.761 0 0 0-1.382 1.555 2.72 2.72 0 0 0-.043 1.689.3.3 0 0 0 .185.192.286.286 0 0 0 .098.016c.032 0 .06-.004.083-.012a.269.269 0 0 0 .177-.141.28.28 0 0 0 .024-.225 2.167 2.167 0 0 1 .035-1.322 2.166 2.166 0 0 1 3.316-1.032.3.3 0 0 0 .414-.066.293.293 0 0 0-.067-.414 2.76 2.76 0 0 0-1.619-.524c-.236 0-.465.036-.685.095a3.314 3.314 0 0 1 3.3-3.621c.473 0 .925.094 1.355.287l.02.028a.28.28 0 0 0 .299.114.292.292 0 0 0 .228-.22 4.326 4.326 0 0 1 4.238-3.358c1.382 0 2.654.638 3.48 1.744.072.094.194.141.312.11a.3.3 0 0 0 .22-.244l.016-.122a3.33 3.33 0 0 1 5.395-.929l.008.008c-.362.307-.65.704-.815 1.169a2.779 2.779 0 0 0-.043 1.688.298.298 0 0 0 .37.197.292.292 0 0 0 .2-.366 2.138 2.138 0 0 1 .032-1.322 2.17 2.17 0 0 1 3.316-1.032c.126.09.323.063.414-.067a.296.296 0 0 0-.063-.413 2.787 2.787 0 0 0-1.623-.523 2.7 2.7 0 0 0-1.284.322 2.913 2.913 0 0 1-.28-1.24 2.951 2.951 0 0 1 2.954-2.94c.264 0 .524.032.776.103a.297.297 0 0 0 .363-.21.28.28 0 0 0-.028-.223.282.282 0 0 0-.177-.138 3.557 3.557 0 0 0-.934-.126c-.283 0-.559.043-.823.106a2.877 2.877 0 0 1-.33-1.326 2.904 2.904 0 0 1 2.906-2.897c.197 0 .398.027.59.066.028.583.158 1.146.422 1.665.075.142.26.201.402.13a.29.29 0 0 0 .145-.173.296.296 0 0 0-.015-.224 3.447 3.447 0 0 1-.382-1.594 3.534 3.534 0 0 1 3.536-3.527 3.53 3.53 0 0 1 3.446 4.318.3.3 0 0 0 .173.342c.13.055.288.004.363-.114l.307-.472a2.323 2.323 0 0 1 3.379 2.063c0 .877-.489 1.672-1.28 2.066a.299.299 0 0 0 .134.563h4.966v.023h.094c.083 0 .166.004.248.008l.252.008.004-.094c.004-.237.044-.465.118-.677a2.166 2.166 0 0 1 3.316-1.032c.126.09.32.06.414-.067a.29.29 0 0 0 .051-.22.28.28 0 0 0-.118-.193 2.7 2.7 0 0 0-1.567-.52 2.135 2.135 0 0 1-.142-.747c0-1.162.949-2.11 2.115-2.11.823 0 1.575.48 1.921 1.22a.303.303 0 0 0 .394.146.298.298 0 0 0 .146-.394c-.366-.783-1.095-1.315-1.926-1.488a3.983 3.983 0 0 1-.236-1.299 3.978 3.978 0 0 1 3.981-3.971 3.97 3.97 0 0 1 3.966 3.798.308.308 0 0 0-.075.158.29.29 0 0 0 .272.318 2.886 2.886 0 0 1 2.646 2.862 2.89 2.89 0 0 1-.917 2.106c-.004 0 0 .008-.004.012-.051.059-.114.102-.162.165a.293.293 0 0 0-.055.22.29.29 0 0 0 .114.193c.13.095.32.071.418-.059a2.643 2.643 0 0 1 2.126-1.059 2.655 2.655 0 0 1 2.655 2.653 2.66 2.66 0 0 1-1.292 2.275.297.297 0 0 0-.102.406c.055.09.15.142.256.142a.284.284 0 0 0 .15-.04c.433-.26.775-.622 1.043-1.031.012.004.02.016.035.016h1.426a.295.295 0 1 0 0-.59h-1.174a3.17 3.17 0 0 0 .252-1.178c0-.68-.212-1.31-.57-1.834h.507a.295.295 0 1 0 0-.59h-.598c-.118 0-.201.082-.248.18a3.248 3.248 0 0 0-2.34-.999c-.41 0-.795.094-1.161.232a3.54 3.54 0 0 0 .224-1.094h1.201a.295.295 0 1 0 0-.59h-1.232a3.474 3.474 0 0 0-2.804-2.921 4.568 4.568 0 0 0-4.557-4.346c-2.52 0-4.576 2.051-4.576 4.566 0 .406.079.819.201 1.232a2.704 2.704 0 0 0-2.312 1.476c-.008 0-.011-.007-.02-.007h-1.579a.297.297 0 0 0-.295.295c0 .161.134.295.295.295h1.379a2.793 2.793 0 0 0-.083.634c0 .263.055.531.142.803a2.75 2.75 0 0 0-2.06 1.779c-.04.106-.035.224-.063.334h-4.155c.532-.539.831-1.267.831-2.035a2.916 2.916 0 0 0-2.914-2.908 2.96 2.96 0 0 0-1.217.267c-.015-2.271-1.862-4.113-4.127-4.113-1.54 0-2.87.862-3.58 2.118a.292.292 0 0 0-.287-.276h-1.016a.297.297 0 0 0 0 .594h1.016c.059 0 .102-.035.15-.063-.205.426-.327.89-.375 1.378a3.488 3.488 0 0 0-.606-.067 3.498 3.498 0 0 0-3.501 3.488c0 .523.138 1.035.362 1.503a3.539 3.539 0 0 0-2.115 3.826 3.894 3.894 0 0 0-2.063-.586 3.893 3.893 0 0 0-3.426 2.019 4.855 4.855 0 0 0-3.62-1.578c-2.173 0-4.052 1.37-4.706 3.416a3.91 3.91 0 0 0-5.324 4.023M228.073 282.92c0 .079.031.154.086.209.055.059.13.09.209.09a.295.295 0 0 0 .209-.086 6.118 6.118 0 0 0 1.859-4.409c0-3.408-2.777-6.18-6.191-6.18a6.162 6.162 0 0 0-3.135.87c-.484-1.688-2.028-2.936-3.875-2.936a4.032 4.032 0 0 0-3.533 2.102.283.283 0 0 0-.212-.094h-.162a.295.295 0 0 0-.295.295c0 .165.13.299.295.299h.134a3.97 3.97 0 0 0-.28 1.437c0 .322.04.645.119.964.035.153.193.26.358.216.158-.039.256-.2.217-.358a3.457 3.457 0 0 1 3.36-4.27 3.457 3.457 0 0 1 3.457 3.448c0 .614-.166 1.22-.477 1.747a.298.298 0 0 0 .106.406.302.302 0 0 0 .406-.106 4.053 4.053 0 0 0 .555-2.047c0-.17-.027-.331-.047-.492a5.556 5.556 0 0 1 3.009-.886c3.087 0 5.596 2.503 5.596 5.585a5.534 5.534 0 0 1-1.678 3.988.283.283 0 0 0-.09.208" mask="url(#f)"/><path d="M173.89 264.106a.297.297 0 0 0-.296-.295h-6.29a.297.297 0 0 0-.295.295c0 .162.134.295.296.295h6.289a.297.297 0 0 0 .295-.295M166.068 273.08h3.363a.297.297 0 0 0 0-.595h-3.363a.296.296 0 0 0-.296.299c0 .161.13.295.296.295M163.031 272.486a.297.297 0 0 0 0 .595h2.276a.3.3 0 0 0 .3-.3.298.298 0 0 0-.3-.295h-2.276zM155.316 272.486a.295.295 0 0 0-.296.296c0 .165.13.299.296.299h6.25a.3.3 0 0 0 .299-.3.298.298 0 0 0-.3-.295h-6.25zM221.703 268.886h-3.06a.296.296 0 0 0 0 .59h3.06a.295.295 0 0 0 0-.59M213.493 269.182c0 .162.134.296.296.296h2.93a.297.297 0 0 0 .295-.296.297.297 0 0 0-.295-.295h-2.93a.297.297 0 0 0-.296.295M169.836 269.847a.297.297 0 0 0-.296-.295h-.437a.297.297 0 0 0-.295.295c0 .161.134.295.295.295h.437a.297.297 0 0 0 .296-.295M159.912 269.847c0 .161.134.295.296.295h.437a.297.297 0 0 0 .295-.295.297.297 0 0 0-.295-.295h-.437a.297.297 0 0 0-.296.295M213.212 267.206h.216a.295.295 0 0 0 .296-.295.292.292 0 0 0-.296-.295h-.216a.292.292 0 0 0-.296.295c0 .162.13.295.296.295M168.586 267.206h.216a.295.295 0 0 0 .296-.295.292.292 0 0 0-.296-.295h-.216a.292.292 0 0 0-.296.295c0 .162.13.295.296.295M163.493 267.206a.295.295 0 0 0 .295-.295.292.292 0 0 0-.295-.295h-.217a.292.292 0 0 0-.295.295c0 .162.13.295.295.295h.217zM168.317 269.847a.297.297 0 0 0-.296-.295h-6.612a.295.295 0 1 0 0 .59h6.612a.297.297 0 0 0 .296-.295M218.873 266.615h-3.576a.295.295 0 1 0 0 .59h3.576c.166 0 .295-.13.295-.295a.295.295 0 0 0-.295-.295M209.958 266.615a.295.295 0 0 0-.295.295c0 .166.13.296.295.296h2.06c.165 0 .299-.13.299-.296a.298.298 0 0 0-.3-.295h-2.06zM188.205 267.206h1.937a.295.295 0 0 0 .296-.295.292.292 0 0 0-.296-.295h-1.937a.292.292 0 0 0-.296.295c0 .162.13.295.296.295M172.1 266.911a.295.295 0 0 0-.295-.295h-2.146a.295.295 0 1 0 0 .59h2.146a.297.297 0 0 0 .296-.295M167.555 267.206a.295.295 0 1 0 0-.59h-3.304a.295.295 0 1 0 0 .59h3.304zM214.485 264.106a.297.297 0 0 0-.295-.295h-7.613c-.165 0-.299.134-.299.295 0 .162.134.295.3.295h7.612a.297.297 0 0 0 .295-.295M192.024 264.402h1.517c.165 0 .299-.134.299-.295a.296.296 0 0 0-.3-.296h-1.516c-.165 0-.299.13-.299.296 0 .161.134.295.3.295M191.067 264.106a.297.297 0 0 0-.295-.295h-1.961a.295.295 0 1 0 0 .59h1.961a.297.297 0 0 0 .295-.295M187.07 264.402h.488a.295.295 0 1 0 0-.59h-.488a.292.292 0 0 0-.296.295c0 .161.13.295.296.295M184.34 264.402h1.677a.295.295 0 1 0 0-.59h-1.677a.292.292 0 0 0-.296.295c0 .161.13.295.296.295M208.502 261.184h1.682a.295.295 0 1 0 0-.59h-1.682c-.165 0-.3.13-.3.294 0 .162.135.296.3.296M204.056 261.184h2.682a.296.296 0 0 0 0-.59h-2.682a.292.292 0 0 0-.295.294c0 .162.13.296.295.296M194.81 260.592h-2.17a.295.295 0 1 0 0 .59h2.17a.295.295 0 0 0 0-.59M188.167 260.888c0 .165.134.295.296.295h1.575a.295.295 0 1 0 0-.59h-1.575a.297.297 0 0 0-.296.295M182.933 261.184h1.788a.296.296 0 0 0 0-.59h-1.788a.292.292 0 0 0-.296.294c0 .162.13.296.296.296M175.864 260.592a.295.295 0 0 0-.296.296c0 .165.13.295.296.295h2.438a.295.295 0 1 0 0-.59h-2.438zM174.658 260.888a.297.297 0 0 0-.295-.295h-2.954c-.165 0-.3.134-.3.295 0 .165.135.295.3.295h2.954c.161 0 .295-.13.295-.295M186.533 260.888a.298.298 0 0 0-.3-.295h-.16a.295.295 0 1 0 0 .59h.16c.166 0 .3-.13.3-.295M187.186 261.184a.295.295 0 0 0 .296-.296.292.292 0 0 0-.296-.295h-.161c-.165 0-.3.13-.3.295 0 .162.135.296.3.296h.161zM192.404 255.276h8.656a.295.295 0 1 0 0-.59h-8.656a.295.295 0 1 0 0 .59M187.932 254.98c0 .162.134.295.295.295h2.017c.165 0 .299-.133.299-.295a.298.298 0 0 0-.3-.295h-2.016a.297.297 0 0 0-.295.295M180.169 254.98c0 .162.134.295.295.295h4.021c.166 0 .3-.133.3-.295a.298.298 0 0 0-.3-.295h-4.02a.297.297 0 0 0-.296.295M186.001 255.276a.295.295 0 1 0 0-.59h-.161c-.166 0-.3.13-.3.295 0 .161.134.295.3.295H186zM186.95 255.276a.295.295 0 0 0 .296-.295.292.292 0 0 0-.295-.296h-.162c-.165 0-.299.13-.299.296 0 .161.134.295.3.295h.16zM194.795 263.81h-.161c-.166 0-.3.134-.3.295 0 .166.134.296.3.296h.161c.166 0 .296-.13.296-.296a.295.295 0 0 0-.296-.295M205.493 257.896a.297.297 0 0 0-.295-.295h-8.38c-.166 0-.3.134-.3.295 0 .161.134.295.3.295h8.38a.297.297 0 0 0 .295-.295M193.695 257.896a.297.297 0 0 0-.295-.295h-3.308c-.165 0-.3.134-.3.295 0 .161.135.295.3.295h3.308a.297.297 0 0 0 .295-.295M189.575 257.896a.297.297 0 0 0-.295-.295h-3.852a.295.295 0 1 0 0 .59h3.852a.297.297 0 0 0 .295-.295M183.88 257.896a.297.297 0 0 0-.295-.295h-1.682c-.165 0-.299.134-.299.295 0 .161.134.295.3.295h1.681a.297.297 0 0 0 .295-.295M178.783 257.896a.298.298 0 0 0-.3-.295h-2.405c-.024 0-.036.016-.055.02-.02-.004-.036-.02-.056-.02h-.433c-.165 0-.3.134-.3.295 0 .161.135.295.3.295h.433c.02 0 .036-.02.056-.023.02.004.031.023.055.023h2.406c.165 0 .3-.134.3-.295M184.645 258.191a.295.295 0 1 0 0-.59h-.216a.295.295 0 1 0 0 .59h.216zM179.833 257.6a.295.295 0 0 0-.295.295c0 .165.13.295.295.295h.217a.295.295 0 1 0 0-.59h-.217zM195.214 257.896a.297.297 0 0 0-.295-.295h-.217c-.165 0-.299.134-.299.295 0 .161.134.295.3.295h.216a.297.297 0 0 0 .295-.295M158.621 336.588c.8 0 1.571-.291 2.178-.819l.216-.193-.504-.46-.173.153a2.592 2.592 0 0 1-1.717.642c-1.418 0-2.568-1.114-2.568-2.488 0-1.366 1.15-2.48 2.568-2.48a2.59 2.59 0 0 1 1.717.634l.181.162.48-.477-.212-.185a3.305 3.305 0 0 0-2.166-.81c-1.792 0-3.249 1.417-3.249 3.156 0 1.744 1.457 3.165 3.25 3.165M166.123 330.268c-1.792 0-3.25 1.417-3.25 3.157 0 1.744 1.458 3.165 3.25 3.165s3.249-1.421 3.249-3.165c0-1.74-1.457-3.157-3.25-3.157m0 5.637c-1.413 0-2.559-1.114-2.559-2.48 0-1.362 1.146-2.472 2.56-2.472 1.414 0 2.56 1.11 2.56 2.472 0 1.366-1.146 2.48-2.56 2.48M175.743 335.364l-3.683-5.058-.027-.04h-.642v6.322h.685v-5.097l3.682 5.058.028.039h.642v-6.321h-.685zM182.18 330.268h-2.548v6.322h2.548c1.788 0 3.24-1.417 3.24-3.157 0-1.744-1.452-3.165-3.24-3.165m2.552 3.165c0 1.362-1.146 2.472-2.552 2.472h-1.863v-4.952h1.863c1.406 0 2.552 1.11 2.552 2.48M188.123 336.586h.689v-6.322h-.69zM193.84 336.588v-5.637h1.997v-.684h-4.682v.684h2v5.637zM198.032 334.82h3.194l.815 1.768h.764l-2.91-6.266-.023-.055h-.516l-2.844 6.191-.059.13h.772l.807-1.767zm.312-.684l1.272-2.795 1.295 2.795h-2.567zM212.406 330.268h-.516l-2.843 6.192-.06.13h.772l.808-1.768h3.198l.815 1.768h.764l-2.914-6.27-.024-.052zm1.043 3.865h-2.571l1.272-2.79 1.3 2.79zM217.9 330.268v6.322h2.548c1.788 0 3.241-1.417 3.241-3.157 0-1.744-1.453-3.165-3.24-3.165H217.9zm2.548 5.637h-1.862v-4.952h1.862c1.41 0 2.552 1.11 2.552 2.48 0 1.362-1.142 2.472-2.552 2.472zM175.83 341.621v.764h1.45v6.538h.764v-7.302zM186.837 346.857c0-1.575-1.075-2.55-2.804-2.55-1.008 0-1.847.334-2.394.944.075-.976.374-1.748.862-2.232.276-.276.863-.736 1.658-.736.504 0 1.264 0 1.804.256l.075.035.264-.449.043-.086h-.004l.11-.193-.094-.04c-.717-.31-1.524-.338-2.221-.338-2.036 0-3.4 1.708-3.4 4.255 0 .787.13 1.476.39 2.039l.091.177c.536 1.004 1.493 1.531 2.769 1.531 1.733 0 2.851-1.027 2.851-2.613m-.874-.02c0 1.106-.8 1.822-2.032 1.822-1.434 0-2.08-1.019-2.08-1.74 0-.873.764-1.802 2.182-1.802 1.19 0 1.93.661 1.93 1.72M192.167 344.561l1.997-2.35.02-.027v-.563h-4.773v.763h3.607l-2 2.346-.024.028v.563h.965c.665 0 1.776.173 1.776 1.322 0 .917-.69 1.512-1.757 1.512a3.008 3.008 0 0 1-1.626-.48l-.225-.15-.464.614.256.165a3.886 3.886 0 0 0 2.06.618c1.508 0 2.524-.932 2.524-2.318 0-1.204-.89-1.976-2.336-2.043M203.23 345.025c0-2.319-1.079-3.645-2.961-3.645-1.875 0-2.95 1.326-2.95 3.645 0 2.322 1.075 3.657 2.95 3.657 1.882 0 2.961-1.335 2.961-3.657m-.768 0c0 1.862-.78 2.889-2.193 2.889-1.41 0-2.182-1.027-2.182-2.89 0-1.314.378-2.88 2.182-2.88 1.414 0 2.193 1.023 2.193 2.88M132.173 292.82c.134.032.26.043.382.043.914 0 1.355-.779 1.745-1.468.374-.657.728-1.267 1.406-1.098.524.118.744.728.559 1.559-.126.559-.496 1.094-.945 1.362l-.248.145.382.603.236-.146c.607-.378 1.107-1.09 1.268-1.81.13-.591.106-1.126-.075-1.548a1.413 1.413 0 0 0-1.02-.858 1.925 1.925 0 0 0-.41-.047c-.933 0-1.374.787-1.767 1.484-.414.732-.753 1.22-1.36 1.086-.452-.102-.637-.66-.468-1.424.099-.426.323-.863.58-1.114l.2-.197-.504-.488-.193.189c-.35.346-.654.917-.776 1.456-.264 1.185.13 2.074 1.008 2.271M132.306 286.226l5.703 1.752.212-.673-5.62-1.728-.086-.028zM135.978 284.408c.347.142.713.213 1.091.213a3.087 3.087 0 0 0 2.832-1.917c.283-.693.299-1.468.055-2.185l-.103-.291-.641.303.082.236c.193.54.174 1.134-.043 1.673-.362.886-1.237 1.48-2.174 1.48-.283 0-.563-.051-.83-.161a2.23 2.23 0 0 1-1.234-1.24 2.37 2.37 0 0 1 .008-1.791c.22-.547.623-.988 1.13-1.236l.233-.118-.272-.642-.264.134a3.09 3.09 0 0 0-1.48 1.598c-.634 1.559.086 3.326 1.61 3.944M140.652 278.392c.815 0 1.5-.453 1.977-1.307.736-1.323.366-2.563-.993-3.31l-3.052-1.693-.346.614 3.056 1.697c.5.275.815.622.937 1.023.118.401.043.846-.225 1.326-.527.945-1.398 1.177-2.378.638l-3.052-1.692-.343.618 3.052 1.692c.469.26.93.394 1.367.394M141.335 269.26l4.218 2.98.075.051.413-.578-4.296-3.031 1.075-1.511-.58-.41-2.504 3.527-.055.075.579.413zM150.303 266.448l.496-.504-1.323-1.302.988-.996c1.032-1.043 1.095-2.209.17-3.118-.398-.393-.871-.602-1.363-.602-.591 0-1.19.291-1.733.838l-1.485 1.5 4.183 4.121.067.063zm-3.25-4.188l.989-.996c.733-.74 1.493-.826 2.091-.232.288.28.433.583.433.901.004.39-.208.807-.61 1.213l-.985 1-1.917-1.886zM154.308 262.52l-.456-1.752 2.272-1.842 1.575.775.051.024.615-.496-5.915-2.877-.406.33 1.646 6.337.618-.5zm1.111-3.937l-1.768 1.433-.693-2.633 2.461 1.2zM157.038 253.854l2.91 4.37.591-.394-2.91-4.37 1.548-1.023-.39-.594-3.69 2.444.39.594zM164.042 255.71l-.858-1.645 1.248-.645c.114-.06.217-.123.311-.182l2.084 1.028.783-.402-2.272-1.125c.551-.634.63-1.441.217-2.232-.363-.7-.965-1.087-1.694-1.087-.417 0-.862.118-1.327.359l-1.875.976 2.75 5.278.633-.323zm-2.426-4.656l1.249-.646c.93-.48 1.666-.338 2.06.422.204.39.236.755.098 1.086-.138.334-.449.63-.922.874l-1.244.645-1.24-2.381zM167.105 247.659l2.256 5.51.658-.264-2.257-5.514zM172.3 252.01l2.347-.712c.645-.193 1.118-.488 1.402-.874.299-.405.374-.897.216-1.413-.181-.602-.618-1-1.205-1.114.256-.366.315-.826.17-1.31-.217-.705-.772-1.11-1.529-1.11-.244 0-.508.04-.787.126l-2.347.708 1.705 5.613.027.087zm2.248-5.215c.087.276.06.516-.079.717-.15.212-.433.39-.819.507l-1.67.504-.527-1.74 1.67-.503c.744-.229 1.256-.048 1.425.515zm-1.776 4.33l-.587-1.929 1.67-.503c.284-.087.54-.13.768-.13.512 0 .839.216.969.645.244.807-.489 1.216-1.15 1.413l-1.67.504zM180.383 249.9c.174 0 .359-.016.544-.051.736-.122 1.307-.445 1.65-.94.346-.497.46-1.134.33-1.894l-.563-3.346-.015-.09-.701.118.579 3.436c.094.563.02 1.023-.217 1.366-.24.342-.634.563-1.177.653-1.095.177-1.796-.342-1.985-1.452l-.563-3.35-.016-.09-.701.122.579 3.432c.224 1.326 1.047 2.086 2.256 2.086M187.002 248.479h-.055c-.58 0-1.162-.209-1.52-.547l-.201-.197-.485.523.205.19c.496.456 1.248.743 1.961.743.044 0 .083-.004.126-.004.622-.031 1.142-.204 1.505-.5.37-.303.555-.716.527-1.188-.047-1.24-1.11-1.504-1.96-1.716-.938-.233-1.383-.41-1.415-1.016a.57.57 0 0 1 .158-.433c.209-.232.598-.374 1.095-.398h.055c.437 0 .902.103 1.173.26l.245.142.342-.61-.236-.138c-.425-.244-1.063-.39-1.61-.358-1.198.055-1.974.689-1.93 1.57.059 1.197 1.102 1.457 1.937 1.665.957.24 1.41.422 1.437 1.063a.718.718 0 0 1-.307.63c-.24.185-.606.295-1.047.319M196 249.467c.145.016.283.024.413.024 1.056 0 1.772-.52 1.87-1.354.158-1.228-.842-1.665-1.65-2.012-.885-.39-1.295-.637-1.224-1.24.047-.39.445-.625 1.067-.625.099 0 .205.008.307.02.433.047.894.228 1.17.456l.22.181.434-.551-.21-.17c-.377-.314-.98-.558-1.527-.621a3.525 3.525 0 0 0-.398-.024c-1 0-1.677.48-1.768 1.252-.142 1.192.843 1.622 1.634 1.964.906.398 1.323.65 1.24 1.283-.05.46-.488.736-1.157.736-.11 0-.22-.008-.339-.023-.57-.067-1.146-.378-1.457-.8l-.17-.228-.562.441.169.217c.441.566 1.201.988 1.938 1.074M200.134 250.014l-.016.087.698.146 1.165-5.743.016-.09-.693-.146zM204.156 251.058l.686.193 1.44-5.042 1.793.508.193-.681-4.261-1.217-.193.681 1.788.512zM214.736 254.883c1.158 0 2.19-.63 2.69-1.641.725-1.472.09-3.275-1.417-4.019l-2.163-1.059-2.634 5.342 2.158 1.059c.43.212.89.318 1.366.318zm.957-5.022c.564.275.985.748 1.19 1.326.208.583.173 1.2-.095 1.744-.378.768-1.165 1.244-2.052 1.244-.366 0-.72-.083-1.051-.244l-1.524-.748 2.012-4.07 1.52.748zM217.63 256.864l3.312 2.165.075.051.39-.594-2.792-1.823 1.095-1.673 2.327 1.52.075.051.394-.59-2.407-1.571 1.009-1.535 2.701 1.763.39-.586-3.221-2.106-.075-.051-3.222 4.904zM223.365 260.041c.043.599.37 1.165.94 1.646.517.433 1.056.653 1.6.653.665 0 1.307-.342 1.85-.988l2.19-2.598.06-.07-.544-.453-2.249 2.664c-.72.855-1.618.945-2.45.248-.42-.354-.653-.743-.68-1.16-.032-.418.141-.85.507-1.288l2.249-2.665-.543-.452-2.25 2.664c-.495.587-.724 1.193-.68 1.8M230.904 265.811c-.386.366-1.036.193-1.607-.409-.398-.417-.634-1.027-.606-1.547l.015-.287-.713-.016-.007.272c-.028.716.283 1.527.795 2.062.508.54 1.087.835 1.63.835.367 0 .705-.134.977-.394.914-.842.422-1.819.028-2.598-.43-.866-.587-1.315-.146-1.736.335-.31.93-.137 1.45.414.299.314.535.744.602 1.098l.051.275.69-.137-.052-.268c-.09-.48-.394-1.051-.776-1.453-.48-.507-1.036-.79-1.563-.79-.339 0-.646.121-.89.346-.87.826-.39 1.787-.004 2.554.44.882.594 1.342.126 1.78M233.609 271.623l.39.594 3.914-2.562-2 5.262-.052.134.359.543 4.915-3.216.078-.05-.39-.595-3.914 2.562 1.997-5.262.05-.134-.358-.543-4.914 3.216zM239.831 275.826a2.908 2.908 0 0 0-1.508 1.724 3.056 3.056 0 0 0 .15 2.319 3.087 3.087 0 0 0 2.756 1.74c.441 0 .867-.099 1.264-.292 1.481-.712 2.088-2.527 1.355-4.038a3.083 3.083 0 0 0-2.753-1.74c-.44 0-.866.094-1.264.287m.311.638a2.14 2.14 0 0 1 .953-.217c.89 0 1.717.524 2.111 1.339.563 1.16.106 2.55-1.02 3.093a2.17 2.17 0 0 1-.957.217 2.372 2.372 0 0 1-2.119-1.334c-.563-1.166-.102-2.555 1.032-3.098M241.207 286.611c.358 1.06.989 1.642 1.78 1.642.181 0 .37-.032.563-.095.607-.205.985-.641 1.08-1.236.37.236.842.284 1.319.126.476-.161.81-.468.968-.885.154-.41.134-.898-.05-1.449l-.784-2.322-5.66 1.897.784 2.322zm2.127.878c-.619.213-1.146-.193-1.453-1.102l-.556-1.65 1.918-.641.555 1.645c.22.654.32 1.484-.464 1.748zm2.304-4.2l.555 1.65c.177.523.24 1.2-.473 1.44a1.09 1.09 0 0 1-.323.055c-.516 0-.791-.496-.933-.917l-.555-1.645 1.729-.583zM242.468 290.647l-.087.02.162.693 5.54-1.33.268-.06-.165-.688zM247.45 292.684c-1.189.189-1.334 1.251-1.453 2.102-.133.976-.267 1.444-.901 1.539-.536.082-.961-.406-1.095-1.244-.09-.567.059-1.2.378-1.614l.173-.228-.575-.418-.165.22c-.426.575-.626 1.422-.512 2.15.181 1.145.819 1.854 1.67 1.854.074 0 .153-.008.236-.02 1.225-.185 1.374-1.263 1.492-2.13.134-.956.264-1.416.863-1.51.46-.08.839.385.96 1.156.072.426.02.914-.125 1.244l-.114.256.645.276.11-.252c.202-.449.272-1.09.186-1.634-.17-1.09-.764-1.767-1.552-1.767-.07 0-.146.008-.22.02M130.578 304.157l.197.232.485-.5-.162-.189a2.33 2.33 0 0 1-.547-1.55c.023-1.245 1.047-2.256 2.284-2.256.59.012 1.146.26 1.56.704a2.3 2.3 0 0 1 .626 1.638 2.314 2.314 0 0 1-.599 1.527l-.173.193.48.492.193-.216c.496-.54.776-1.244.792-1.98.031-1.65-1.253-3.02-2.867-3.05h-.051c-1.591 0-2.907 1.318-2.938 2.935a3.07 3.07 0 0 0 .72 2.02M130.045 306.486l-.087.004.04.697 5.753-.358.091-.004-.04-.697zM136.531 312.73l-4.915-1.26 4.376-2.57-.107-.76-5.458 3.228.075.527 6.136 1.602zM131.335 316.012l-.09.02.153.68 5.718-1.259-.15-.68zM138 321.264l.67-.2-1.241-4.153-.67.2.52 1.74-4.942 1.472.2.67 4.943-1.473zM139.614 323.5l-6.293-.3-.142-.007.292.728 1.776.083 1.067 2.653-1.225 1.287.292.72 4.426-4.684-.193-.48zm-.93.653l-1.838 1.945-.831-2.063 2.67.118zM142.178 330.602l.626-.315-1.937-3.78-.044-.078-.622.315.831 1.618-4.509 2.302-.083.04.32.622 4.591-2.338zM138.654 334.529l-.078.047.362.599 4.934-2.98.075-.051-.362-.595zM146.69 336.94c-.023-.481-.244-1.075-.559-1.516-.453-.63-1.032-.992-1.59-.992-.269 0-.513.082-.733.24-.961.685-.622 1.68-.35 2.48.31.913.4 1.381-.111 1.74-.421.306-1.032.05-1.504-.61-.327-.457-.477-1.08-.378-1.579l.05-.276-.692-.118-.048.272c-.122.693.075 1.52.5 2.106.481.669 1.072 1.039 1.666 1.039.292 0 .567-.09.812-.264.996-.7.65-1.712.374-2.523-.307-.897-.398-1.354.086-1.7.37-.26.914-.016 1.351.59.248.347.418.795.437 1.146l.012.279.69-.047-.013-.268zM152.05 342.36l-1.469-1.46-4.068 4.074-.063.067.496.492 1.284-1.291.973.968a8 8 0 0 0 .264.24l-.347 2.244.615.61.382-2.449c.248.11.504.162.756.162.504 0 .988-.217 1.398-.626.882-.882.8-2.015-.22-3.031m-.276 2.539c-.61.61-1.351.535-2.076-.181l-.973-.969 1.86-1.861.972.968c.516.512.973 1.283.217 2.043M155.296 346.257l2.477 1.968.437-.547-3.025-2.405-3.65 4.566 3.107 2.472.437-.547-2.56-2.031 1.221-1.527 2.202 1.751.437-.547-2.202-1.751zM163.094 351.742a3.005 3.005 0 0 0-1.3-1.693 3.03 3.03 0 0 0-1.61-.464c-1.025 0-1.954.504-2.482 1.35a2.859 2.859 0 0 0-.354 2.216 2.985 2.985 0 0 0 1.343 1.846c.48.303 1.04.46 1.614.46.17 0 .331-.011.493-.035l.122-.02 1.225-1.956-.595-.374-1.056 1.689a2.365 2.365 0 0 1-1.437-.346 2.3 2.3 0 0 1-1.032-1.425 2.166 2.166 0 0 1 .264-1.689c.402-.645 1.11-1.027 1.894-1.027.437 0 .867.126 1.245.358a2.31 2.31 0 0 1 1.004 1.299l.075.244.673-.154-.086-.28zM162.883 357.364l.623.32 2.646-5.216-.626-.315zM169.333 358.287l-.477-4.527-.661-.252-2.095 5.452.65.252 1.543-4.004.422 3.98.035.161.303.126 3.1-2.787-1.532 4.007.653.245 2.095-5.452-.657-.252zM174.083 361.637l-.023.086.677.181 1.528-5.636-.673-.185zM181.643 362.033l-2.505-5.07-.634-.11-.988 5.759.69.114.775-4.507 2.505 5.07.63.11.992-5.758-.69-.115zM185.059 363.689l3.965.2.036-.696-3.265-.166.099-1.952 2.811.146.036-.701-2.812-.142.094-1.79 3.159.16.035-.696-3.86-.197zM197.103 357.553c-.13 0-.264.008-.394.027l-2.343.3.736 5.703.012.09 2.34-.302a2.988 2.988 0 0 0 1.984-1.118 2.827 2.827 0 0 0 .61-2.157c-.185-1.449-1.453-2.543-2.945-2.543zm-1.387 5.337l-.567-4.408 1.646-.213c.103-.012.201-.02.304-.02 1.142 0 2.114.835 2.256 1.937.158 1.212-.736 2.33-1.988 2.492l-1.65.212zM204.38 356.123c-.263 0-.527.035-.783.102-1.599.425-2.56 2.04-2.146 3.59.338 1.271 1.52 2.157 2.87 2.157.265 0 .528-.035.784-.102 1.6-.425 2.556-2.04 2.143-3.598-.339-1.264-1.516-2.15-2.867-2.15m.543 5.075c-.2.05-.401.078-.602.078-1.032 0-1.934-.673-2.194-1.641a2.147 2.147 0 0 1 .248-1.68 2.3 2.3 0 0 1 1.398-1.052c.201-.055.402-.079.607-.079 1.032 0 1.933.67 2.19 1.63.318 1.185-.422 2.417-1.647 2.744M216.673 350.8l.666 6.388.673-.397-.185-1.764 2.47-1.452 1.46 1.012.674-.39-5.313-3.66-.445.263zm2.993 2.338l-1.922 1.126-.283-2.645 2.205 1.519zM223.315 347.19l-.414-.563-3.516 2.54.41.562 1.476-1.063 3.02 4.169.568-.414-3.02-4.164zM225.288 344.589l-.39.338 1.84 6.156.59-.511-.512-1.7 2.158-1.886 1.627.728.583-.512-5.844-2.59-.052-.023zm2.985 2.086l-1.677 1.464-.772-2.55 2.45 1.086zM231.417 338.25l2.796 5.628.063.126.492-.606-.791-1.59 1.807-2.22 1.725.44.492-.602-6.257-1.578-.327.401zm3.623 1.148l-1.406 1.724-1.193-2.38 2.599.656zM238.196 337.504a.476.476 0 0 0 .119.653c.078.051.169.083.267.083a.47.47 0 0 0 .39-.201.485.485 0 0 0 .075-.354.458.458 0 0 0-.193-.3.501.501 0 0 0-.658.119M240.628 329.64a2.852 2.852 0 0 0-1.434-.382c-1.063 0-2.06.578-2.599 1.507l-1.177 2.047 5.076 2.909 1.177-2.043a2.986 2.986 0 0 0 .312-2.251 2.857 2.857 0 0 0-1.355-1.787zm-4.253 2.912l.827-1.436a2.313 2.313 0 0 1 1.992-1.162c.382 0 .756.103 1.083.288 1.064.614 1.418 2 .788 3.09l-.827 1.436-3.863-2.216zM243.8 328.68c-.22-.103-.528.007-.626.223a.453.453 0 0 0-.016.359c.04.122.126.212.24.267a.473.473 0 0 0 .626-.224.462.462 0 0 0 .016-.362.466.466 0 0 0-.24-.264M240.564 322.36l.662.229.37-1.079 4.88 1.657.224-.657-5.545-1.886zM246.983 315.609c-.7-.217-1.366-.02-1.874.539a1.69 1.69 0 0 0-1.158-1.134 1.694 1.694 0 0 0-.516-.078c-.859 0-1.524.665-1.831 1.83-.178.669-.174 1.28.008 1.763.196.524.586.886 1.13 1.047.567.17 1.102.063 1.54-.315.161.776.618 1.3 1.33 1.516.186.055.37.086.552.09l.051.004c.969 0 1.725-.76 2.072-2.082.228-.866.193-1.63-.107-2.208a1.934 1.934 0 0 0-1.197-.972m.536 2.952c-.296 1.114-.922 1.625-1.698 1.393a1.038 1.038 0 0 1-.704-.677c-.13-.374-.123-.874.023-1.437.244-.932.717-1.468 1.292-1.468h.027c.095.004.193.02.292.051.382.115.642.355.776.705.141.374.137.87-.008 1.433m-3.147-.953c-.24.906-.768 1.35-1.39 1.157-.626-.188-.85-.854-.606-1.775.2-.763.594-1.2 1.079-1.2h.023c.087 0 .177.015.268.043a.93.93 0 0 1 .63.579c.122.31.122.724-.004 1.196M248.313 313.219l-1.508-1.83c-.544-.705-1.182-1.177-1.71-1.256-.917-.138-1.594.457-1.76 1.52-.094.625.095 1.318.504 1.85l.162.212.563-.413-.17-.22c-.29-.379-.433-.89-.366-1.327.103-.662.457-1.016.965-.933.339.051.831.44 1.26.992l1.99 2.42.019.028.587.087.602-3.952-.693-.107-.445 2.929zM249.002 307.555l-1.674-1.685c-.606-.653-1.284-1.059-1.811-1.09-.906-.075-1.556.602-1.615 1.673-.04.633.213 1.307.67 1.799l.18.196.524-.46-.189-.205c-.326-.354-.512-.846-.488-1.29.04-.654.327-1.016.811-1.016h.063c.339.02.879.37 1.347.873l2.206 2.22.023.028.59.035.233-3.995-.697-.04-.173 2.957zM148.598 303.388h-.003c-.028 0-.048.024-.075.031-.048.016-.099.028-.13.063-.004 0-.008 0-.008.004l-2.647 2.925a.277.277 0 0 0-.078.197v3.373a.3.3 0 0 0 .299.3.298.298 0 0 0 .295-.3v-3.26l2.363-2.609 2.623 2.618v3.251a.3.3 0 0 0 .3.3.298.298 0 0 0 .295-.3v-3.078h3.422v3.078c0 .165.134.3.295.3a.3.3 0 0 0 .3-.3v-6.495l2.363-7.636 2.622 7.644v6.487c0 .165.134.3.296.3a.3.3 0 0 0 .299-.3v-3.078h5.828v3.243a.295.295 0 1 0 .591 0v-3.877a.295.295 0 0 0-.086-.208l-2.608-2.567v-.822l2.363-2.61 2.623 2.617v7.338a.297.297 0 1 0 .595 0v-7.164h8.613v7.266a.295.295 0 1 0 .59 0v-7.562a.295.295 0 0 0-.086-.208l-.493-.492 2.237-2.472 2.623 2.621v8.215a.297.297 0 0 0 .595 0v-7.95h13.358v1.172l-.016.02.016.012v6.746a.295.295 0 1 0 .59 0v-6.534H208.9v6.794a.3.3 0 0 0 .3.3.298.298 0 0 0 .295-.3v-7.09c0-.015-.016-.027-.016-.042 0-.012.016-.024.016-.04a.295.295 0 0 0-.087-.208l-2.386-2.382 2.06-2.279 2.622 2.622v9.328a.297.297 0 1 0 .595 0v-9.155h8.609l-2.403 2.653a.293.293 0 0 0-.078.2v6.381a.297.297 0 0 0 .594 0v-6.266l2.363-2.61 2.623 2.618v6.305a.297.297 0 1 0 .595 0v-6.132h8.612v6.125a.295.295 0 1 0 .591 0v-6.42a.295.295 0 0 0-.086-.209l-2.934-2.928a.295.295 0 0 0-.21-.087h-2.94v-3.885c0-.016-.017-.032-.02-.047 0-.02.011-.04.003-.06l-2.217-6.463a.29.29 0 0 0-.283-.2.3.3 0 0 0-.28.208l-2 6.464c-.008.02.003.035.003.05-.004.02-.02.032-.02.048v3.885h-1.346c-.012-.047-.02-.102-.055-.138l-2.934-2.924a.304.304 0 0 0-.213-.087h-8.908v-2.838a.295.295 0 0 0-.295-.295h-5.71v-4.578h-4.596v-2.7l.007.004-.007-.008v-.138l.216.071-.216-.154v-.621l-.071.039a.323.323 0 0 0-.095-.099l-2.701-1.857c-.008-2.508-.02-3.059-.036-3.185h.004c-.055-1.968-1.63-3.566-3.564-3.723v-2.732c0-.165-.134-.3-.295-.3a.3.3 0 0 0-.3.3v2.732a4.36 4.36 0 0 0-1.551.393c-1.24.587-2.04 1.917-2.04 3.393v3.118l-2.741 1.889c-.032.028-.043.063-.063.095h-.067v3.483h-4.115v4.578h-6.07c-.165 0-.298.134-.298.295v4.46H167.498c-.024 0-.04.023-.063.027-.055.016-.107.028-.142.067-.004 0-.008 0-.008.004l-2.646 2.92a.293.293 0 0 0-.08.201v.831h-3.15c-.004-.016.008-.028.004-.04l-2.934-8.553a.31.31 0 0 0-.283-.2.295.295 0 0 0-.28.212l-2.65 8.55c0 .007.008.02.004.031h-6.672zm3.06 2.925l-2.339-2.335h5.935v2.335h-3.596zm13.142-2.335l2.37 2.335h-5.741v-2.335h3.371zm47.325-3.337l-2.34-2.33h8.365l2.34 2.33h-8.365zm-27.398 1.03l-2.426-2.416h13.11l2.43 2.42h-13.055c-.02 0-.031.017-.051.02-.004-.003-.004-.015-.008-.023zm14.036.213a.304.304 0 0 0-.087-.212l-.496-.496h8.459l1.926 1.917h-9.802v-1.209zm10.01-3.983l-2.386 2.633c-.012.012-.008.036-.016.051h-8.786l-1.843-1.838a.295.295 0 0 0-.209-.086h-13.949c-.004 0-.004.004-.004.004l-.003-.004c-.028 0-.044.023-.071.031-.048.016-.099.028-.134.063 0 0-.008 0-.008.004l-2.426 2.677-2.016-2.012a.312.312 0 0 0-.213-.086h-1.355v-4.165h33.42v2.728zm-30.063 4.145c.015.02.011.043.027.055.012.012.032.008.043.016l.146.145h-8.364l-2.34-2.334h8.365l2.123 2.118zm3.012-7.463h21.042v-3.984h-21.042v3.984zm10.275-12.03l6.17 4.335v3.117h-12.33v-3.098l6.16-4.353zm38.456 18.906l2.34 2.334h-8.366l-2.339-2.334h8.365zm-7.038-4.444l1.721-5.554 1.906 5.554v3.85h-3.627v-3.85zm-31.363-15.118l-.051-.036-.051.04c-.052.007-.103.015-.134.043l-3.108 2.13v-2.658c0-1.247.678-2.37 1.725-2.861a3.651 3.651 0 0 1 1.556-.362 3.282 3.282 0 0 1 3.284 3.274c0 .036.024 1.996.028 2.61l-3.115-2.125c-.036-.032-.079-.036-.122-.048l-.012-.007zM212.375 353.283l1.622 4.279-4.62-3.031-.117-.075-.599.228 2.076 5.464.65-.252-1.623-4.279 4.623 3.03.114.076.599-.225-2.071-5.463zM157.787 318.408c0-1.582-1.142-2.527-3.06-2.527h-3.954v9.68h3.954c2.253 0 3.544-.989 3.544-2.709 0-1.118-.586-1.968-1.626-2.366.74-.401 1.142-1.133 1.142-2.078zm-6.23-1.744h3.17c1.469 0 2.276.618 2.276 1.744 0 1.134-.807 1.76-2.276 1.76h-3.17v-3.504zm3.17 8.117h-3.17v-3.846h3.17c1.792 0 2.776.673 2.776 1.901 0 1.256-.984 1.945-2.776 1.945zM165.648 315.88c-2.745 0-4.978 2.17-4.978 4.834 0 2.673 2.233 4.846 4.978 4.846 2.745 0 4.978-2.173 4.978-4.846 0-2.665-2.233-4.833-4.978-4.833m4.194 4.833c0 2.244-1.882 4.066-4.194 4.066-2.311 0-4.194-1.822-4.194-4.066 0-2.236 1.883-4.05 4.194-4.05 2.312 0 4.194 1.814 4.194 4.05M179.392 323.076c.016-1.945-1.606-2.433-3.036-2.866-1.264-.377-2.457-.74-2.457-2.039 0-.917.945-1.507 2.406-1.507.78 0 1.63.224 2.174.57l.22.146.406-.653-.213-.134c-.67-.433-1.685-.712-2.587-.712-1.938 0-3.19.897-3.19 2.29 0 1.882 1.595 2.362 2.997 2.783 1.292.39 2.509.76 2.497 2.118 0 1.04-1.016 1.708-2.592 1.708-1.031 0-2.118-.44-2.768-1.125l-.185-.193-.555.555.18.18c.816.831 2.123 1.363 3.328 1.363 2.052 0 3.375-.977 3.375-2.484M188.448 315.88h-7.093v.784h3.155v8.896h.783v-8.896h3.155zM199.369 320.715c0-2.665-2.233-4.834-4.978-4.834-2.745 0-4.978 2.169-4.978 4.834 0 2.672 2.233 4.845 4.978 4.845 2.745 0 4.978-2.173 4.978-4.845m-4.978 4.066c-2.312 0-4.194-1.823-4.194-4.066 0-2.236 1.882-4.05 4.194-4.05 2.312 0 4.194 1.814 4.194 4.05 0 2.243-1.882 4.066-4.194 4.066M203.285 317.2l6.057 8.325.028.036h.787v-9.68h-.783v8.361l-6.057-8.325-.028-.035h-.788v9.679h.784zM214.748 325.564h.784v-9.683h-.784zM227.439 325.508l.023.055h.874l-4.473-9.628-.024-.055h-.622l-4.383 9.553-.06.13h.887l1.177-2.586h5.43l1.17 2.53zm-1.548-3.35h-4.679l2.32-5.093 2.359 5.093z" mask="url(#f)"/></g></g></svg>